<?xml version="1.0" encoding="utf-8"?>
<!DOCTYPE svg PUBLIC "-//W3C//DTD SVG 1.1//EN" "http://www.w3.org/Graphics/SVG/1.1/DTD/svg11.dtd">
<svg version="1.1" id="Layer_1" xmlns="http://www.w3.org/2000/svg" xmlns:xlink="http://www.w3.org/1999/xlink" x="0px" y="0px"
	 viewBox="399.0927 16.0335 1761.8146 1567.933" enable-background="new 399.0927 16.0335 1761.8146 1567.933" xml:space="preserve"
	>
<g>
	<path fill="#754C24" stroke="#000000" stroke-width="0.0938" d="M805.6055,46.704c10.126-2.3882,20.8251,6.4004,20.252,16.813
		c0.191,10.317-10.5081,18.9146-20.5386,16.3353c-9.8394-1.815-16.1442-13.4695-12.1321-22.7357
		C795.193,51.8626,799.9694,47.7548,805.6055,46.704z"/>
	<path fill="#FFFF00" stroke="#010101" stroke-width="0.0938" d="M842.957,81.1897c6.1138-3.1524,14.2337,0.6687,15.9532,7.2601
		c1.8151,5.8272-2.006,12.7052-7.9288,14.1382c-6.1138,1.9106-13.1829-2.2927-14.3292-8.5975
		C835.4103,88.9275,838.1807,83.2913,842.957,81.1897z"/>
	<path fill="#FF1D25" stroke="#000000" stroke-width="0.0938" d="M884.8939,87.8766c11.4633-3.0569,24.2642,5.1585,26.3657,16.813
		c2.6747,11.1768-5.1586,23.3088-16.3353,25.6971c-7.7377,1.9106-16.4308-0.8598-21.5893-6.9736
		c-5.6362-6.3049-6.9736-16.0487-3.1524-23.5954C872.8573,93.7994,878.4935,89.3096,884.8939,87.8766z"/>
	<path fill="#FBB03B" stroke="#000000" stroke-width="0.0938" d="M950.7127,122.1712c8.502-1.7195,17.6727,2.1971,22.3536,9.4573
		c5.4451,7.9288,4.5854,19.2967-1.815,26.3658c-5.5406,6.5914-15.189,9.1707-23.3089,6.4004
		c-8.6931-2.7703-14.9979-11.4634-14.9979-20.5385C932.7534,133.539,940.5867,123.8907,950.7127,122.1712z"/>
	<path fill="#CCCCCC" stroke="#000000" stroke-width="0.0938" d="M894.4467,144.2382c9.1707-2.2927,19.2011,4.6809,20.3475,14.0426
		c1.624,8.8841-5.1586,17.9593-14.0427,19.2012c-8.7886,1.7195-18.0548-4.8719-19.3922-13.6605
		C879.5443,155.1284,885.7536,145.9577,894.4467,144.2382z"/>
	<path fill="#662D91" stroke="#000000" stroke-width="0.0938" d="M741.6017,162.4841c8.6931-2.4837,17.8638,4.8719,18.0548,13.756
		c0.7642,7.7378-5.7317,15.38-13.6605,15.5711c-7.6423,0.4776-14.6158-6.1138-15.0934-13.756
		C730.2339,171.1771,734.8192,164.108,741.6017,162.4841z"/>
	<path fill="#F15A24" stroke="#000000" stroke-width="0.0938" d="M1019.5885,163.2483c15.189-3.6301,31.9064,6.7825,35.3453,21.9715
		c4.2988,14.9024-5.254,31.9064-20.1564,36.2051c-14.3292,4.8719-31.3332-3.1524-36.7783-17.1951
		c-5.4451-12.5142-0.8597-28.1808,10.3171-36.0141C1011.6596,165.8276,1015.4808,164.108,1019.5885,163.2483z"/>
	<path fill="#534741" stroke="#000000" stroke-width="0.0938" d="M962.1761,175.3804c10.0305-2.6748,20.9207,5.7317,20.7296,16.1442
		c0.5731,10.317-9.8394,19.1056-19.9654,17.004c-9.0752-1.4329-15.6666-10.9857-13.6605-19.9654
		C950.5217,182.2584,955.8713,176.8133,962.1761,175.3804z"/>
	<path fill="#FF1D25" stroke="#000000" stroke-width="0.0938" d="M1096.011,200.6953c8.693-1.2419,17.8638,0.6687,25.3149,5.254
		c11.6544,7.0691,19.0101,20.7296,18.1503,34.3901c-0.3821,16.6219-12.9917,31.8109-29.136,35.4409
		c-10.6036,2.6748-22.1626,0.3821-31.1422-5.8272c-8.3109-5.8272-14.1381-14.9979-15.7621-25.0284
		c-1.9105-10.5081,1.0508-21.7804,7.7378-30.0914C1077.1919,207.1912,1086.2671,201.9372,1096.011,200.6953z"/>
	<path fill="#D4145A" stroke="#000000" stroke-width="0.0938" d="M1030.0966,234.0346c10.5082-2.5793,21.876,5.3496,23.2134,16.0487
		c1.7195,9.8394-5.254,19.9653-15.0935,21.8759c-9.8394,2.3882-20.7296-4.3943-22.9267-14.3292
		C1012.5194,247.4086,1019.684,235.9452,1030.0966,234.0346z"/>
	<path fill="#2E3192" stroke="#010101" stroke-width="0.0938" d="M977.5562,237.8557c6.5914-2.0061,14.1381,3.1524,14.5203,10.0304
		c0.8598,6.9735-5.8272,13.4695-12.8008,12.4187c-6.0182-0.5732-10.7947-6.4004-10.126-12.4187
		C969.5317,243.2053,973.0663,239.0021,977.5562,237.8557z"/>
	<path fill="#534741" stroke="#000000" stroke-width="0.0938" d="M1181.031,247.5996c13.2784-1.9106,27.2255,1.624,38.1157,9.5528
		c10.6991,7.7378,18.3414,19.5833,20.7296,32.5751c2.7703,13.8516-0.4777,28.754-8.6931,40.3129
		c-6.8779,9.7439-17.0995,17.004-28.4673,20.252c-13.1829,3.8211-27.7031,2.1971-39.7397-4.3943
		c-12.2275-6.687-21.6848-18.4369-25.4104-31.8109c-4.2987-14.9024-1.5284-31.6198,7.4512-44.325
		C1153.3279,257.7256,1166.7018,249.5102,1181.031,247.5996z"/>
	<path fill="#22B573" stroke="#010101" stroke-width="0.0938" d="M885.7536,251.8028c7.8333-2.3882,16.5264,3.439,17.9593,11.3678
		c1.8151,7.5467-3.248,16.0487-10.9857,17.4816c-7.5468,1.815-15.5711-3.8211-17.0995-11.3678
		C873.7171,262.1199,878.3024,253.7134,885.7536,251.8028z"/>
	<path fill="#9E005D" stroke="#010101" stroke-width="0.0938" d="M1053.8831,283.4226c6.687-2.8658,15.0934,2.1971,15.571,9.4573
		c0.9553,6.7825-5.254,13.2784-12.0365,12.7052c-6.4004-0.1911-11.6544-6.4004-10.7947-12.8008
		C1047.1006,288.5811,1049.9664,284.8556,1053.8831,283.4226z"/>
	<path fill="#4D4D4D" stroke="#000000" stroke-width="0.0938" d="M1097.9215,290.3962c13.7561-3.9167,29.3271,4.8719,33.2438,18.628
		c4.6809,13.756-3.7256,29.9958-17.5771,34.2946c-12.8008,4.6808-28.3718-2.0061-33.9125-14.4247
		c-5.5406-11.2723-2.0061-25.8881,7.9288-33.4348C1090.6614,292.9755,1094.1959,291.256,1097.9215,290.3962z"/>
	<path fill="#A67C52" stroke="#000000" stroke-width="0.0938" d="M1277.5144,317.144c12.4186-4.2988,27.0344,4.1077,29.8047,16.9085
		c3.0569,11.4633-4.2032,24.3596-15.4756,27.7987c-7.4512,2.4837-16.1442,0.8597-22.2579-4.2032
		c-6.9736-5.6361-10.126-15.38-7.7378-24.0731C1263.7583,325.9326,1269.9677,319.4367,1277.5144,317.144z"/>
	<path fill="#D4145A" stroke="#000000" stroke-width="0.0938" d="M913.5523,334.3391c8.502-2.8658,18.1503,4.0122,18.628,12.8963
		c1.0508,7.5467-4.7764,15.38-12.4186,16.0487c-6.9736,1.0508-13.9471-4.0122-15.6666-10.7947
		C901.7068,345.3248,906.1967,336.6318,913.5523,334.3391z"/>
	<path fill="#FF00FF" stroke="#000000" stroke-width="0.0938" d="M974.6903,357.1703c7.6422-2.5793,16.3353,2.7703,18.1503,10.5081
		c2.1016,7.2601-2.1971,15.8577-9.5528,17.9593c-7.2601,2.4837-15.6666-2.1971-17.8638-9.3617
		C962.4626,368.7292,966.857,359.3675,974.6903,357.1703z"/>
	<path fill="#7AC943" stroke="#010101" stroke-width="0.0938" d="M1161.9254,358.1256c6.4958-3.1524,14.3291,2.9614,13.6604,9.9349
		c-0.0955,6.878-8.502,11.8455-14.4247,8.1199C1154.1875,372.5504,1154.5697,361.087,1161.9254,358.1256z"/>
	<path fill="#FBB03B" stroke="#000000" stroke-width="0.0938" d="M1043.375,359.7496c8.693-2.5793,18.5325,2.6748,21.7804,11.0812
		c2.6747,6.5915,1.5284,14.7114-3.3435,19.9654c-4.7764,5.6362-13.2784,7.5468-20.0609,4.6809
		c-7.3557-2.9613-12.1321-10.7946-11.6544-18.628C1030.2876,369.1113,1035.8282,361.7557,1043.375,359.7496z"/>
	<path fill="#ED1C24" stroke="#000000" stroke-width="0.0938" d="M1106.519,361.087c16.2397-4.2988,34.5812,4.3943,41.6503,19.5833
		c5.7317,11.5589,4.7764,26.0792-2.5793,36.6828c-9.4573,14.7113-30.1868,20.5385-45.949,12.8008
		c-14.3292-6.3048-23.3088-22.5446-21.0161-38.0202C1080.3444,377.3268,1091.9988,364.3349,1106.519,361.087z"/>
	<path fill="#C7B299" stroke="#000000" stroke-width="0.0938" d="M1217.2361,361.8512c13.0874-2.2927,27.0344,0.6687,38.1157,8.1199
		c11.8455,7.8333,20.1564,20.7296,22.5446,34.6767c2.5793,14.1382-1.1462,29.1361-9.7438,40.5994
		c-7.5468,10.2215-19.0101,17.3861-31.5243,19.8698c-13.8516,2.9613-28.8495-0.1911-40.5039-8.311
		c-10.5082-7.1646-18.0549-18.2458-21.1117-30.4735c-3.1525-12.3232-1.5284-25.8881,4.4897-37.1604
		C1186.9536,374.843,1201.3784,364.4305,1217.2361,361.8512z"/>
	<path fill="#998675" stroke="#010101" stroke-width="0.0938" d="M1007.1699,376.1804c5.3495-2.6748,12.3231,1.0508,13.4694,6.7825
		c1.624,5.4451-2.3882,11.8455-8.2154,12.4187c-4.9675,0.6687-9.9349-3.0569-10.7947-8.0244
		C1000.6739,382.9629,1002.9666,378.091,1007.1699,376.1804z"/>
	<path fill="#808080" stroke="#000000" stroke-width="0.0938" d="M1309.0386,377.4222c11.3679-3.5345,24.5508,3.248,28.3719,14.4247
		c2.6747,7.0691,1.6239,15.2845-2.7704,21.4938c-4.4899,6.4959-12.4187,10.4126-20.3475,10.0305
		c-7.9287-0.2866-15.571-4.8719-19.3921-11.8455c-3.3435-5.8272-3.9166-13.1829-1.624-19.4877
		C1295.8557,385.0645,1301.874,379.4284,1309.0386,377.4222z"/>
	<path fill="#FFFF00" stroke="#000000" stroke-width="0.0938" d="M936.4791,394.6173c7.6423-2.8658,16.6219,2.2927,18.5325,10.0305
		c2.5793,8.0244-3.0569,17.6727-11.5589,18.7235c-7.4512,1.3374-14.9023-4.2988-16.3353-11.6544
		C925.5889,404.7433,929.601,396.8145,936.4791,394.6173z"/>
	<path fill="#FF00FF" stroke="#010101" stroke-width="0.0938" d="M1047.3872,408.9465c7.3556-2.0061,14.3291,6.3048,11.4633,13.2784
		c-1.9105,6.687-11.4633,8.8841-16.0487,3.6301C1037.3567,420.792,1039.9359,410.3795,1047.3872,408.9465z"/>
	<path fill="#39B54A" stroke="#010101" stroke-width="0.0938" d="M1010.0357,410.7616c7.7377-2.2927,16.3353,3.3435,17.8637,11.0812
		c2.1971,8.1199-3.9166,17.4816-12.5141,18.0548c-7.5468,0.9553-14.8069-5.254-15.7621-12.7052
		C998.3812,420.1233,1002.9666,412.4811,1010.0357,410.7616z"/>
	<path fill="#FCEE21" stroke="#000000" stroke-width="0.0938" d="M1314.7703,432.9241c21.1117-3.9166,43.943,2.9614,59.323,17.9593
		c13.3739,12.6097,21.1117,30.8556,21.1117,49.197c0.1909,18.2458-7.4513,36.3007-20.4431,49.0059
		c-10.4126,10.4126-24.3596,17.1951-38.9755,19.1056c-19.4877,2.6748-39.9307-3.63-54.5465-16.7174
		c-11.8455-10.5081-19.8698-25.2194-22.1625-40.886c-2.6748-16.7174,1.3374-34.2946,10.7947-48.3372
		C1279.998,446.8712,1296.62,435.981,1314.7703,432.9241z"/>
	<path fill="#00FFFF" stroke="#000000" stroke-width="0.0938" d="M1056.8445,435.5034c8.9796-2.9614,19.1056,2.6748,22.2581,11.3679
		c3.2479,8.0244,0.2865,18.2458-7.2601,22.8312c-6.1139,4.0122-14.6158,3.5345-20.3475-0.8598
		c-6.6869-4.9675-9.3617-14.4247-6.4004-22.1625C1047.005,441.3306,1051.4949,437.0318,1056.8445,435.5034z"/>
	<path fill="#0071BC" stroke="#010101" stroke-width="0.0938" d="M1097.8259,445.8204c7.5468-1.3374,13.6605,7.6422,10.2216,14.3292
		c-2.4838,6.3048-11.75,7.6422-15.9532,2.3882C1086.8402,457.0927,1090.1837,446.5846,1097.8259,445.8204z"/>
	<path fill="#00FFFF" stroke="#010101" stroke-width="0.0938" d="M1016.7227,450.8834c6.687-2.4837,14.0426,3.9166,12.8962,10.8902
		c-0.3821,7.1646-9.6483,11.3679-15.2844,6.878C1007.9341,464.3528,1009.367,453.2716,1016.7227,450.8834z"/>
	<path fill="#CCCCCC" stroke="#000000" stroke-width="0.0938" d="M1138.9987,450.9789
		c16.4308-3.8211,34.4856,5.4451,41.1725,20.8251c4.5854,10.0305,4.2988,22.067-0.7642,31.8109
		c-4.5853,8.8841-12.8962,15.8576-22.5446,18.628c-10.126,2.9614-21.3983,1.3375-30.2825-4.4898
		c-12.7052-7.9288-19.3922-24.2642-15.9532-38.8799C1113.5881,465.2126,1125.1471,453.6537,1138.9987,450.9789z"/>
	<path fill="#808080" stroke="#010101" stroke-width="0.0938" d="M1078.9114,491.1963c6.0183-2.3882,13.0874,2.5793,13.1829,8.9796
		c0.4777,5.1585-3.63,10.2215-8.884,10.5081c-5.8273,0.6687-11.0813-4.7764-10.6036-10.5081
		C1072.7021,496.2592,1075.1858,492.4381,1078.9114,491.1963z"/>
	<path fill="#39B54A" stroke="#000000" stroke-width="0.0938" d="M905.9101,496.8324c8.9796-2.1016,18.5325,5.4451,18.5325,14.6158
		c0.5731,8.3109-6.7825,16.0487-15.0934,16.0487c-8.5975,0.4776-16.4308-7.4512-15.8577-16.0487
		C893.5869,504.5702,899.032,498.0743,905.9101,496.8324z"/>
	<path fill="#8CC63F" stroke="#000000" stroke-width="0.0938" d="M1224.9739,510.1108c6.2094-1.7195,13.2784-0.2866,18.3414,3.8211
		c4.7764,3.7256,7.7378,9.7438,7.8333,15.8576c0.2866,8.0244-4.7764,15.9532-12.1321,19.2011
		c-4.4897,2.1016-9.7438,2.2927-14.5203,1.0508c-8.4064-2.3882-14.7113-10.5081-14.8068-19.2966
		C1209.2118,521.2876,1215.9943,512.3079,1224.9739,510.1108z"/>
	<path fill="#3FA9F5" stroke="#000000" stroke-width="0.0938" d="M1180.0757,530.2672c7.3557-2.2927,15.571,2.9614,17.1951,10.317
		c2.1971,7.5468-3.1525,16.2397-10.9857,17.3861c-7.8334,1.5284-15.6666-5.1585-16.0487-13.0873
		C1169.5676,538.5781,1173.8663,531.9868,1180.0757,530.2672z"/>
	<path fill="#808080" stroke="#010101" stroke-width="0.0938" d="M1131.2607,531.7957c5.4452-1.9105,12.2277,1.1464,13.8517,6.7825
		c1.9105,5.5406-2.1017,11.75-7.5468,13.1829c-5.5406,1.7195-12.2277-1.5284-13.6605-7.2601
		C1122.3767,539.2469,1126.0067,533.3241,1131.2607,531.7957z"/>
	<path fill="#3FA9F5" stroke="#000000" stroke-width="0.0938" d="M989.9748,546.316c8.9797-3.1524,19.2967,2.2927,22.5446,11.0812
		c2.8658,6.878,1.2418,15.4755-4.2032,20.634c-5.2541,5.3495-13.9471,6.687-20.5386,3.1524
		c-6.8781-3.3435-11.0812-11.2723-10.317-18.9146C977.9382,555.1045,983.0012,548.4175,989.9748,546.316z"/>
	<path fill="#808080" stroke="#000000" stroke-width="0.0938" d="M1389.2822,559.1167c16.7174-2.6748,34.4856,3.439,46.0444,15.8576
		c12.9918,13.374,17.7682,33.9125,12.1321,51.5852c-4.5854,15.189-16.4308,27.9897-31.3333,33.6259
		c-14.9979,5.9227-32.7662,4.2988-46.4266-4.2033c-12.9918-7.8333-22.1625-21.4938-24.4552-36.4917
		c-2.7703-16.2398,2.8658-33.6259,14.5203-45.2803C1367.6929,566.0902,1378.2009,560.7407,1389.2822,559.1167z"/>
	<path fill="#22B573" stroke="#000000" stroke-width="0.0938" d="M1237.3926,561.887c16.5264-2.8658,34.199,7.2601,39.9307,23.0223
		c4.4899,11.4633,2.7704,25.1238-4.5853,34.9633c-8.4065,11.7499-24.0731,17.5771-38.1157,14.1381
		c-10.0304-2.2927-18.9146-8.9797-23.7865-17.9593c-5.6362-10.1259-6.1138-22.9267-1.1464-33.3393
		C1214.7523,571.7264,1225.4515,563.6065,1237.3926,561.887z"/>
	<path fill="#B3B3B3" stroke="#000000" stroke-width="0.0938" d="M1072.1289,568.3829c8.9797-2.4837,18.7235,3.439,21.5894,12.1321
		c2.8658,7.9288-0.0955,17.5772-7.2601,22.1625c-6.0182,4.0122-14.4247,3.8211-20.252-0.4777
		c-6.5914-4.5853-9.5527-13.565-7.1646-21.2072C1060.7611,574.7833,1065.9197,569.7203,1072.1289,568.3829z"/>
	<path fill="#7AC943" stroke="#010101" stroke-width="0.0938" d="M1175.2993,576.1207c7.3556-2.3882,15.7621,2.7703,17.3861,10.2216
		c2.1016,7.3557-2.8658,16.0487-10.5081,17.2905c-7.1647,1.624-14.6158-3.5345-16.1443-10.6036
		C1164.1224,586.1511,1168.3257,578.1268,1175.2993,576.1207z"/>
	<path fill="#ED1E79" stroke="#010101" stroke-width="0.0938" d="M1116.0719,579.9418c7.3556-2.4837,15.8577,4.7764,13.4694,12.4186
		c-1.9105,8.4064-14.3292,10.9857-19.4877,4.0121C1105.2771,590.7365,1109.0983,581.3748,1116.0719,579.9418z"/>
	<path fill="#8CC63F" stroke="#000000" stroke-width="0.0938" d="M1307.9878,579.7508c6.8781-1.624,14.5203,0.5731,19.3922,5.7317
		c4.9674,4.9675,6.9735,12.5142,5.3495,19.2967c-1.5284,6.4004-6.2094,11.8455-12.2275,14.3292
		c-6.4004,2.6747-14.1382,1.8151-19.7744-2.1971c-6.9735-4.6809-10.317-13.9471-8.2153-22.067
		C1294.3273,587.3931,1300.5366,581.2792,1307.9878,579.7508z"/>
	<path fill="#736357" stroke="#010101" stroke-width="0.0938" d="M1007.2654,597.9966c4.9675-2.9614,11.941,1.4329,11.4633,7.1646
		c0,5.6362-6.878,9.4573-11.6544,6.4004C1001.8203,608.8868,1001.9158,600.4803,1007.2654,597.9966z"/>
	<path fill="#C1272D" stroke="#000000" stroke-width="0.0938" d="M1142.7241,602.4865c9.3618-1.8151,19.5833,1.8151,25.6971,9.1707
		c8.502,9.7438,8.3109,25.6971-0.4777,35.1543c-8.2153,9.7439-23.5955,12.0365-34.2946,5.1586
		c-9.2662-5.5406-14.5203-16.8129-12.6097-27.4166C1122.7588,613.6633,1131.834,604.397,1142.7241,602.4865z"/>
	<path fill="#8CC63F" stroke="#000000" stroke-width="0.0938" d="M919.1884,613.0901c6.7825-1.5284,14.0427,4.1077,13.9471,11.1768
		c0.4777,6.687-5.7317,12.6097-12.3231,12.0366c-6.7825-0.1911-12.3232-7.2601-10.7947-13.9471
		C910.782,617.7709,914.6031,613.8543,919.1884,613.0901z"/>
	<path fill="#8CC63F" stroke="#000000" stroke-width="0.0938" d="M1054.8384,623.5981c11.5588-2.3882,23.882,6.3049,25.6014,17.9593
		c2.2927,11.3679-6.0182,23.4044-17.3861,25.4105c-9.2662,2.006-19.2966-2.8658-23.6909-11.1768
		c-3.1525-5.8272-3.5345-12.9918-0.9553-19.1056C1041.1779,629.903,1047.5782,624.7445,1054.8384,623.5981z"/>
	<path fill="#3FA9F5" stroke="#000000" stroke-width="0.0938" d="M1303.3069,633.4376c16.813-2.8658,34.5812,7.8333,40.0264,23.9775
		c6.1138,16.0487-0.9553,35.5365-15.8577,44.0385c-9.6483,5.8272-22.067,6.7825-32.4796,2.4837
		c-7.0691-2.8658-13.1829-7.8333-17.2905-14.3292c-6.6869-10.2215-7.6422-23.7865-2.5792-34.8677
		C1280.0935,643.468,1291.0793,635.1571,1303.3069,633.4376z"/>
	<path fill="#CCCCCC" stroke="#010101" stroke-width="0.0938" d="M1096.9663,647.5757c6.4004-1.9106,13.8516,3.248,13.5649,10.126
		c0.0955,7.7377-9.1707,12.8008-15.8577,9.5528c-5.063-2.1971-7.6422-8.6931-5.063-13.6605
		C1090.948,650.5371,1093.8137,648.34,1096.9663,647.5757z"/>
	<path fill="#9E005D" stroke="#000000" stroke-width="0.0938" d="M848.5932,649.7729c10.0305-2.1016,20.5386,6.3048,20.5386,16.5263
		c0.6687,9.1707-7.0691,17.7682-16.1443,18.2458c-9.0752,0.9553-17.9593-6.4004-18.819-15.4755
		C832.9266,660.0899,839.7091,651.1102,848.5932,649.7729z"/>
	<path fill="#D9E021" stroke="#000000" stroke-width="0.0938" d="M1473.3469,650.6326
		c16.9084-2.7703,34.3901,9.5529,37.5426,26.3658c3.8212,16.2397-6.5914,34.199-22.5447,38.9754
		c-15.2844,5.3495-33.5303-2.3882-40.5039-16.9084c-6.5914-12.6097-3.821-29.2316,6.496-39.071
		C1459.3999,654.9313,1466.1824,651.5879,1473.3469,650.6326z"/>
	<path fill="#D4145A" stroke="#000000" stroke-width="0.0938" d="M1211.6,654.4537c9.4573-2.1016,19.6787-0.4777,27.9897,4.4898
		c11.3678,6.4959,19.0101,19.0101,19.5833,32.0974c0.9552,15.38-8.2155,30.7601-22.1626,37.256
		c-9.7439,4.7764-21.5892,5.254-31.6198,1.2418c-10.4126-4.1077-18.9146-12.8008-22.5446-23.3088
		c-3.4391-9.3618-3.057-20.0609,1.0508-29.2316C1188.7687,665.6305,1199.3723,656.9375,1211.6,654.4537z"/>
	<path fill="#FF1D25" stroke="#000000" stroke-width="0.0938" d="M1126.58,675.5654c9.1707-3.0569,19.5833,2.8658,22.4491,11.941
		c2.3882,6.7825,0.6687,14.9979-4.5853,19.9654c-4.7764,4.7764-12.3231,6.4004-18.6279,3.9166
		c-8.0244-2.9614-13.2784-11.8455-12.0366-20.252C1114.5433,684.0674,1119.7019,677.5715,1126.58,675.5654z"/>
	<path fill="#39B54A" stroke="#000000" stroke-width="0.0938" d="M1381.64,682.0613c16.9083-3.248,35.2499,2.6748,47.0953,15.189
		c12.1321,12.2275,17.3861,30.8555,13.6605,47.6685c-3.2479,15.571-14.1382,29.4227-28.5629,36.2052
		c-14.5203,7.1646-32.2886,6.9735-46.6178-0.3821c-14.1382-7.0692-24.7418-20.8251-27.7986-36.3962
		c-3.248-15.0934,0.7642-31.4288,10.5081-43.3698C1357.7579,691.041,1369.2213,684.163,1381.64,682.0613z"/>
	<path fill="#F15A24" stroke="#000000" stroke-width="0.0938" d="M920.2393,692.5695c6.4959-2.4837,14.3292,2.1971,15.2845,9.0751
		c1.5284,7.0692-4.7764,14.2337-11.8455,13.7561c-6.4959-0.0955-12.0365-6.2094-11.3679-12.7053
		C912.6926,698.2056,915.845,694.0024,920.2393,692.5695z"/>
	<path fill="#22B573" stroke="#000000" stroke-width="0.0938" d="M1015.7674,709.9556c9.2662-2.1971,19.4877,3.7256,22.258,12.8963
		c2.2927,6.7825,0.3822,14.7114-4.7764,19.6788c-5.7317,5.9227-15.5711,7.3557-22.7357,3.248
		c-6.4958-3.439-10.6036-10.8903-10.0304-18.2458C1000.865,719.1262,1007.5519,711.484,1015.7674,709.9556z"/>
	<path fill="#0071BC" stroke="#000000" stroke-width="0.0938" d="M1301.3964,725.1445c6.7825-1.3375,14.0426,1.0508,18.7235,6.0182
		c5.5406,5.7317,7.2601,14.8068,4.1077,22.1625c-3.439,8.693-13.1829,14.1381-22.2581,12.5141
		c-9.8394-1.3374-17.6726-10.5081-17.5771-20.3474C1284.2013,735.8437,1291.8435,726.7685,1301.3964,725.1445z"/>
	<path fill="#0000FF" stroke="#010101" stroke-width="0.0938" d="M1162.785,725.8132c5.1586-2.1971,11.3679,2.7703,10.4126,8.3109
		c-0.4777,5.9228-8.502,8.9797-12.8008,4.9675C1155.907,735.4616,1157.34,727.4372,1162.785,725.8132z"/>
	<path fill="#0071BC" stroke="#000000" stroke-width="0.0938" d="M1498.1842,732.7867c17.4817-2.006,35.6321,5.5406,46.5222,19.3922
		c10.4125,12.7052,14.2336,30.569,9.8394,46.4266c-3.821,14.4247-14.0426,27.0344-27.5121,33.5303
		c-14.1382,7.0691-31.4288,7.2601-45.6625,0.4776c-15.0935-6.878-26.3657-21.3983-29.3271-37.6381
		c-3.3434-16.6219,2.1016-34.6767,14.0426-46.7133C1474.5887,739.5693,1486.1477,734.0287,1498.1842,732.7867z"/>
	<path fill="#FF0000" stroke="#020202" stroke-width="0.0938" d="M1926.2456,739.2827c5.5406-3.248,13.2784,1.8151,12.5142,8.2154
		c-0.0956,6.2093-7.929,10.317-13.0873,6.7825C1919.9408,751.2237,1920.3229,741.9575,1926.2456,739.2827z"/>
	<path fill="#999999" stroke="#000000" stroke-width="0.0938" d="M1962.3552,739.4737
		c10.6036-2.2927,22.1625,4.3943,25.4105,14.7114c2.4836,7.0691,1.0508,15.2845-3.6301,21.1117
		c-4.1078,5.254-10.6991,8.4064-17.2906,8.4064c-8.3108,0.1911-16.5264-4.7764-20.1564-12.2275
		c-3.5344-6.8781-3.1525-15.5711,1.0508-22.067C1950.9874,744.2501,1956.4324,740.6201,1962.3552,739.4737z"/>
	<path fill="#FCEE21" stroke="#000000" stroke-width="0.0938" d="M1094.1005,742.2441c7.4512-3.1525,16.7174,2.9613,16.7174,11.0812
		c0.5731,7.4512-6.5916,14.0426-13.9471,12.8962c-6.3048-0.6687-11.3678-6.687-10.7947-12.9918
		C1086.1715,748.3578,1089.6106,743.868,1094.1005,742.2441z"/>
	<path fill="#00FF00" stroke="#000000" stroke-width="0.0938" d="M1238.3478,748.2623c15.38-3.5345,32.0974,6.9735,35.7275,22.3536
		c4.1078,14.8069-4.8718,31.7153-19.4877,36.3962c-14.6158,5.6362-32.4796-2.3882-38.3068-16.9085
		c-5.7317-12.8008-1.1464-28.9449,10.4126-36.7783C1230.1323,750.8416,1234.1445,749.1221,1238.3478,748.2623z"/>
	<path fill="#0071BC" stroke="#020202" stroke-width="0.0938" d="M2018.8124,748.8355c4.6808-2.1016,10.4125,2.1016,9.9349,7.1646
		c-0.0956,5.6362-7.4513,8.9797-11.75,5.254C2012.603,758.1973,2013.7493,750.555,2018.8124,748.8355z"/>
	<path fill="#FF0000" stroke="#010101" stroke-width="0.0938" d="M1869.693,749.6953c6.9736-2.2927,14.9979,3.0569,15.5712,10.317
		c1.0508,7.2601-5.7317,14.2337-12.9918,13.4694c-6.687-0.3821-12.1321-6.8781-11.1768-13.4694
		C1861.5731,755.2358,1865.1075,751.0327,1869.693,749.6953z"/>
	<path fill="#FF931E" stroke="#010101" stroke-width="0.0938" d="M2050.3367,749.6953c3.5344-1.624,7.9287,1.5284,7.6421,5.4451
		c0.0957,4.3943-5.9226,7.0692-9.1707,4.1077C2045.4647,756.7643,2046.4199,750.9371,2050.3367,749.6953z"/>
	<path fill="#9E005D" stroke="#010101" stroke-width="0.0938" d="M1192.5898,751.0327c5.3496-2.006,11.3679,3.248,10.0304,8.8841
		c-0.7642,5.8272-8.7886,8.502-12.8962,4.2988C1185.4253,760.3944,1187.0492,752.5611,1192.5898,751.0327z"/>
	<path fill="#B3B3B3" stroke="#010101" stroke-width="0.0938" d="M1145.6855,753.7074c5.3496-2.006,11.8456,1.7195,12.8964,7.3557
		c1.3374,5.5406-2.9614,11.4634-8.5975,11.941c-5.1586,0.7642-10.4126-3.3434-10.9857-8.502
		C1138.33,759.8212,1141.2913,755.1403,1145.6855,753.7074z"/>
	<path fill="#666666" stroke="#020202" stroke-width="0.0938" d="M1996.8408,756.2867c2.8658-1.8151,7.1647,0.2866,7.4513,3.7256
		c0.7643,3.8211-3.9166,7.1646-7.3556,5.1585C1993.5929,763.5468,1993.3063,758.0062,1996.8408,756.2867z"/>
	<path fill="#1B1464" stroke="#000000" stroke-width="0.0938" d="M1908.9551,759.6302c7.8333-2.1971,16.7174,0.3821,22.1624,6.4004
		c5.4451,5.6362,7.4513,14.2337,5.3496,21.6849c-2.2927,8.0244-9.2662,14.5203-17.5771,16.0487
		c-8.1199,1.624-17.0042-1.7195-21.9716-8.311c-4.6809-5.9227-6.1138-14.1381-3.63-21.3027
		C1895.6766,767.0814,1901.6949,761.4452,1908.9551,759.6302z"/>
	<path fill="#2E3192" stroke="#010101" stroke-width="0.0938" d="M2090.4585,759.3436c5.4451-2.7704,12.5142,2.006,11.8455,8.1199
		c-0.0955,6.4959-8.5977,10.317-13.4695,6.1138C2083.9624,770.0427,2084.9177,761.6362,2090.4585,759.3436z"/>
	<path fill="#00FFFF" stroke="#010101" stroke-width="0.0938" d="M2066.5764,760.2989c6.4958-2.8658,14.4246,3.0569,13.5649,10.126
		c-0.1912,7.3557-9.6484,11.941-15.5713,7.5467C2057.8833,773.7683,2059.2207,762.6871,2066.5764,760.2989z"/>
	<path fill="#FFFF00" stroke="#010101" stroke-width="0.0938" d="M2036.9626,763.2603c6.7825-2.0061,14.1382,3.9166,13.7561,10.9857
		c0.0955,6.9735-7.3556,12.5142-14.0426,10.5081c-6.0183-1.4329-9.7438-8.3109-7.6422-14.1381
		C2030.1802,767.0814,2033.3325,764.12,2036.9626,763.2603z"/>
	<path fill="#8C6239" stroke="#010101" stroke-width="0.0938" d="M2113.4807,766.3171c6.9736-2.006,14.5203,4.5853,13.2783,11.7499
		c-0.573,6.687-8.0244,11.3679-14.2336,8.9797c-6.2095-1.9106-9.2661-9.8394-5.9229-15.38
		C2108.0356,768.9919,2110.5193,766.9858,2113.4807,766.3171z"/>
	<path fill="#FCEE21" stroke="#020202" stroke-width="0.0938" d="M2010.2148,769.8517c5.9226-3.1524,13.6605,2.4837,12.3231,9.0752
		c-0.6687,6.4959-9.3618,9.6483-14.1382,5.254C2003.7189,780.5508,2004.6741,772.1443,2010.2148,769.8517z"/>
	<path fill="#93278F" stroke="#000000" stroke-width="0.0938" d="M1838.2643,770.998c14.8068-2.3882,30.3779,5.9227,36.7783,19.4877
		c5.9226,11.7499,4.2987,26.7479-3.9166,37.0649c-9.4574,12.5142-27.6077,17.1951-41.9369,10.6992
		c-13.9471-5.8271-23.0222-21.3027-21.0162-36.3962C1809.7969,786.3781,1822.7886,773.0041,1838.2643,770.998z"/>
	<path fill="#00FFFF" stroke="#000000" stroke-width="0.0938" d="M1172.4335,778.6403c11.941-3.5345,25.8881,2.1016,31.9064,13.0873
		c5.6362,9.4573,4.7764,22.2581-2.0061,31.0466c-6.7825,9.1707-19.5833,13.3739-30.4734,9.9349
		c-7.8334-2.2927-14.5204-8.2154-17.6727-15.6666c-3.1525-7.0691-3.1525-15.2845,0-22.3536
		C1157.4355,786.8557,1164.3136,780.8374,1172.4335,778.6403z"/>
	<path fill="#00FFFF" stroke="#010101" stroke-width="0.0938" d="M1121.708,779.2134c7.3557-2.4837,15.9532,3.439,15.9532,11.2723
		c0.6687,6.8781-5.5406,13.2784-12.4187,12.9918c-6.4958,0.0955-12.4187-5.6362-12.3231-12.2276
		C1112.7284,785.9004,1116.454,780.6464,1121.708,779.2134z"/>
	<path fill="#FF1D25" stroke="#000000" stroke-width="0.0938" d="M1317.6361,780.5508c16.1443-3.8211,34.0081,2.9614,43.752,16.3353
		c10.126,13.2784,11.2723,32.6707,2.7704,47.0953c-8.4066,15.0934-26.4613,23.8821-43.5608,21.2073
		c-16.6219-2.2927-31.2378-15.0934-35.3455-31.3332c-4.2032-14.7114,0.4777-31.3332,11.3679-41.9369
		C1302.4471,786.2825,1309.8029,782.2703,1317.6361,780.5508z"/>
	<path fill="#9E005D" stroke="#000000" stroke-width="0.0938" d="M1078.8159,781.3151c6.5914-2.7703,14.8069,1.624,16.3353,8.5975
		c2.006,6.7825-3.057,14.4247-10.0305,15.2845c-6.6869,1.2419-13.7561-4.1077-14.2336-10.9857
		C1070.1228,788.8618,1073.6573,783.2256,1078.8159,781.3151z"/>
	<path fill="#999999" stroke="#010101" stroke-width="0.0938" d="M2087.5925,781.4106c7.0691-2.9614,15.8577,1.4329,17.8638,8.7886
		c2.2927,6.8781-2.1016,14.9023-9.0752,16.9085c-6.7825,2.2927-14.8069-2.0061-16.813-8.7886
		C2077.1799,791.6321,2081.001,783.7032,2087.5925,781.4106z"/>
	<path fill="#808080" stroke="#020202" stroke-width="0.0938" d="M1994.0706,783.4166c3.2479-1.3374,7.1646,1.624,6.7825,5.1586
		c-0.0956,3.8211-5.0631,6.1138-8.0244,3.7256C1989.5808,790.1036,1990.4404,784.563,1994.0706,783.4166z"/>
	<path fill="#ED1C24" stroke="#010101" stroke-width="0.0938" d="M2058.9341,786.187c7.0691-2.6747,14.9023,4.5854,12.8962,11.7499
		c-1.3374,7.1646-11.1768,10.2216-16.3352,5.1586C2049.6677,798.5101,2051.7695,788.0975,2058.9341,786.187z"/>
	<path fill="#2E3192" stroke="#010101" stroke-width="0.0938" d="M1972.9589,788.8618c5.4451-2.3882,12.132,2.2927,11.75,8.2154
		c0.191,6.4959-8.1199,10.8902-13.3739,7.0691C1965.5076,800.7073,1966.5583,790.9634,1972.9589,788.8618z"/>
	<path fill="#FF0000" stroke="#010101" stroke-width="0.0938" d="M1944.3004,790.8679c5.8271-3.0569,13.3739,2.6748,12.132,9.1707
		c-0.6686,6.4004-9.2661,9.7438-14.0425,5.3495C1937.5179,801.6625,1938.6642,793.1605,1944.3004,790.8679z"/>
	<path fill="#808080" stroke="#020202" stroke-width="0.0938" d="M2038.8732,791.8232c4.2988-1.1464,8.5975,3.63,6.7825,7.7377
		c-1.2418,4.0122-6.9735,5.1585-9.7438,2.006C2032.7594,798.6057,2034.5745,792.5873,2038.8732,791.8232z"/>
	<path fill="#FF0000" stroke="#010101" stroke-width="0.0938" d="M2015.0867,792.874c5.5406-2.9614,12.8008,1.9105,12.3231,8.1199
		c0,6.4004-7.9288,10.6036-13.1829,6.9735C2008.4952,804.8149,2008.9729,795.4532,2015.0867,792.874z"/>
	<path fill="#7AC943" stroke="#000000" stroke-width="0.0938" d="M1777.1262,794.9756c6.687-1.5284,14.1382,0.9553,18.437,6.2093
		c4.5853,5.2541,5.7317,13.1829,2.8658,19.5833c-3.1525,7.6423-11.75,12.4187-19.8699,11.1768
		c-8.6931-1.0508-15.8577-8.8841-16.1443-17.5772C1761.8418,805.3881,1768.4332,796.7906,1777.1262,794.9756z"/>
	<path fill="#F7931E" stroke="#010101" stroke-width="0.0938" d="M1993.8795,802.1402c5.063-2.8658,11.941,1.7195,11.2723,7.4512
		c0,5.7317-7.3556,9.3618-12.0365,6.1138C1988.1478,812.7438,1988.6255,804.5284,1993.8795,802.1402z"/>
	<path fill="#8CC63F" stroke="#000000" stroke-width="0.0938" d="M1423.6724,803.382c6.3048-1.2418,13.0873,0.8598,17.5771,5.4451
		c5.8271,5.8272,7.2601,15.571,3.1525,22.7357c-4.0121,7.6423-13.4695,11.7499-21.876,9.4573
		c-8.502-2.0061-14.8069-10.317-14.5201-19.0101C1408.0057,813.2214,1414.8837,804.9105,1423.6724,803.382z"/>
	<path fill="#998675" stroke="#010101" stroke-width="0.0938" d="M1929.0159,810.069c5.5408-1.815,11.75,3.248,10.9857,9.0752
		c-0.1909,6.4959-8.7885,10.317-13.756,6.1138C1920.6094,821.4369,1922.4244,811.693,1929.0159,810.069z"/>
	<path fill="#7AC943" stroke="#000000" stroke-width="0.0938" d="M1963.406,810.2601c9.6483-2.6748,20.4431,4.7764,21.3983,14.7114
		c1.433,9.5528-6.4003,19.1056-15.9531,19.5833c-8.7886,0.8597-17.4817-6.0182-18.5325-14.8069
		C1948.7902,821.0547,1954.8085,812.0751,1963.406,810.2601z"/>
	<path fill="#93278F" stroke="#020202" stroke-width="0.0938" d="M2035.0521,809.7824c3.0569-1.0508,6.496,2.1971,5.254,5.2541
		c-0.7643,3.0569-5.063,4.0121-7.0691,1.7195C2031.0398,814.6544,2032.0907,810.5466,2035.0521,809.7824z"/>
	<path fill="#3FA9F5" stroke="#000000" stroke-width="0.0938" d="M1895.5811,811.7885c7.1647-3.0569,16.2397,1.7195,17.7682,9.4573
		c1.9106,7.0691-3.3434,14.9979-10.5081,16.0487c-6.8779,1.4329-14.2336-3.6301-15.4755-10.5081
		C1886.0283,820.5771,1889.6583,813.9857,1895.5811,811.7885z"/>
	<path fill="#CCCCCC" stroke="#000000" stroke-width="0.0938" d="M2052.3428,811.9796c4.6807-2.1016,10.5081,1.9106,10.0303,7.0691
		c0,5.4451-6.9736,8.8841-11.2722,5.6362C2046.3243,821.819,2047.0886,813.8901,2052.3428,811.9796z"/>
	<path fill="#9E005D" stroke="#010101" stroke-width="0.0938" d="M2072.3081,811.7885c4.8718-2.7704,11.4634,1.8151,10.5081,7.2601
		c-0.3821,5.2541-7.1646,8.311-11.3679,5.1586C2067.054,821.4369,2067.6272,814.0812,2072.3081,811.7885z"/>
	<path fill="#F15A24" stroke="#010101" stroke-width="0.0938" d="M2016.9017,817.6157c3.7256-2.006,8.6931,1.1464,8.4065,5.3495
		c0.191,4.6809-6.0183,7.5468-9.5527,4.4899C2012.4119,825.0669,2013.0807,819.1442,2016.9017,817.6157z"/>
	<path fill="#FF931E" stroke="#000000" stroke-width="0.0938" d="M1580.3384,819.6218c9.6483-3.439,21.3983,1.624,25.4104,10.9857
		c3.5345,7.4512,1.9106,17.004-3.821,22.9268c-5.3496,5.7317-14.2338,7.9288-21.5894,5.3495
		c-8.3109-2.6748-14.2336-10.9858-14.0426-19.6788C1566.2002,830.6075,1572.123,822.2966,1580.3384,819.6218z"/>
	<path fill="#93278F" stroke="#020202" stroke-width="0.0938" d="M1998.7515,825.0669c3.5344-1.624,8.0243,1.624,7.6422,5.4451
		c0,4.3943-5.8271,6.9736-9.0752,4.1077C1993.8795,832.2315,1994.7391,826.4043,1998.7515,825.0669z"/>
	<path fill="#C7B299" stroke="#010101" stroke-width="0.0938" d="M2035.0521,825.3535c6.496-2.8658,14.6158,2.006,15.0934,9.0751
		c0.9553,6.5915-5.063,12.8963-11.6543,12.3232c-6.4004-0.1911-11.6544-6.7825-10.3171-13.0874
		C2028.8428,829.9388,2031.6132,826.7864,2035.0521,825.3535z"/>
	<path fill="#CCCCCC" stroke="#000000" stroke-width="0.0938" d="M1232.6161,826.4043c16.6219-2.6748,33.9125,9.3617,37.256,25.8881
		c4.1077,16.1443-5.9227,34.1035-21.6848,39.262c-13.5651,4.9674-29.9003-0.0955-38.3068-11.8455
		c-7.4512-9.9349-8.6931-24.0731-2.8658-35.0588C1211.8865,834.8108,1221.726,827.7417,1232.6161,826.4043z"/>
	<path fill="#ED1C24" stroke="#000000" stroke-width="0.0938" d="M1748.4678,827.264c8.5975-2.006,17.8638,4.9675,18.3414,13.8516
		c0.9552,8.5021-6.3048,16.6219-14.9023,16.7175c-8.2155,0.4776-15.8577-6.5915-15.9532-14.8069
		C1735.4761,835.575,1741.2078,828.5059,1748.4678,827.264z"/>
	<path fill="#A67C52" stroke="#000000" stroke-width="0.0938" d="M1926.0546,834.6198
		c12.1321-2.5793,24.9329,6.5914,26.4612,18.9146c2.0061,11.6544-6.5914,23.691-18.2457,25.6016
		c-9.2662,1.9105-19.3923-2.8658-23.8821-11.1768c-3.6301-6.496-3.8212-14.9023-0.2866-21.4938
		C1913.1583,840.3514,1919.272,835.8616,1926.0546,834.6198z"/>
	<path fill="#00FF00" stroke="#000000" stroke-width="0.0938" d="M1801.0083,837.8677c8.7886-1.9106,18.0548,5.7317,17.6727,14.7113
		c0.3821,8.1199-7.1647,15.4755-15.2845,15.0935c-8.0244,0.0955-15.0935-7.1646-14.8069-15.0934
		C1788.5896,845.5099,1794.1301,839.014,1801.0083,837.8677z"/>
	<path fill="#93278F" stroke="#010101" stroke-width="0.0938" d="M2012.1254,838.7274c5.1586-2.006,11.4634,1.7195,12.132,7.2601
		c1.1464,5.8271-4.6809,11.6544-10.5081,10.5081c-4.7764-0.6687-8.502-5.6362-7.6422-10.5081
		C2006.5847,842.7396,2008.9729,839.7782,2012.1254,838.7274z"/>
	<path fill="#FBB03B" stroke="#000000" stroke-width="0.0938" d="M1870.7438,840.7335c6.1138-2.1971,13.3739-0.6688,17.9594,3.9166
		c5.1586,4.8719,6.687,12.9918,3.8212,19.4877c-2.7704,6.3048-9.4574,10.6991-16.4308,10.3171
		c-8.12,0-15.5712-6.5915-16.7175-14.6158C1857.943,851.9103,1863.006,843.3127,1870.7438,840.7335z"/>
	<path fill="#0000FF" stroke="#010101" stroke-width="0.0938" d="M1989.1986,842.4531c5.4451-2.4837,12.0365,3.3434,10.4126,9.0751
		c-1.0508,5.6362-8.7886,8.0244-12.8962,4.0122C1982.4161,851.9103,1983.9446,844.1725,1989.1986,842.4531z"/>
	<path fill="#D4145A" stroke="#000000" stroke-width="0.0938" d="M1641.3809,845.1278c5.063-1.0508,10.4126,0,14.6158,2.9614
		c5.9227,4.0122,9.0752,11.5589,7.7378,18.5324c-0.8599,5.1586-4.0122,9.9349-8.4066,12.7053
		c-6.1138,4.0121-14.6158,3.9166-20.634-0.2866c-6.4958-4.2988-9.7438-12.8008-7.6422-20.252
		C1628.7711,852.0059,1634.5028,846.4651,1641.3809,845.1278z"/>
	<path fill="#C1272D" stroke="#000000" stroke-width="0.0938" d="M1522.0663,848.3757c5.1586-1.5284,10.8901-0.9553,15.571,1.5284
		c6.5916,3.3434,10.8903,10.5081,10.9858,17.9593c0.0955,6.3049-2.7704,12.5142-7.7378,16.4308
		c-6.0183,4.9675-14.9979,5.9227-21.9714,2.5792c-7.1647-3.3434-11.941-11.0812-11.75-19.0101
		C1507.2594,859.0749,1513.5642,850.6685,1522.0663,848.3757z"/>
	<path fill="#FCEE21" stroke="#010101" stroke-width="0.0938" d="M1716.0837,848.3757c7.8333-2.2927,15.4756,6.5915,12.2277,14.0426
		c-2.5792,7.5468-13.8516,9.0751-18.3413,2.4837C1705.3846,859.1705,1708.9192,849.8087,1716.0837,848.3757z"/>
	<path fill="#C7B299" stroke="#010101" stroke-width="0.0938" d="M1468.5706,852.9611c6.7825-2.1016,14.4247,3.1524,14.9978,10.2215
		c0.9553,6.9736-5.3495,13.756-12.4186,13.1829c-6.9736-0.0955-12.6097-7.1646-11.1768-13.9471
		C1460.6416,857.9285,1464.1763,854.1074,1468.5706,852.9611z"/>
	<path fill="#7AC943" stroke="#010101" stroke-width="0.0938" d="M1966.3674,853.1522c6.2092-2.7703,13.4694,3.9166,11.3678,10.3171
		c-1.4329,6.1138-9.9349,8.502-14.2336,4.0121C1958.8207,863.4692,1960.5402,855.0627,1966.3674,853.1522z"/>
	<path fill="#FF931E" stroke="#010101" stroke-width="0.0938" d="M991.8854,853.9164c7.1646-2.2927,14.7113,5.254,12.4186,12.4186
		c-1.5284,7.2601-11.7499,10.0305-16.8129,4.6809C981.7593,865.9529,984.5297,855.5403,991.8854,853.9164z"/>
	<path fill="#808080" stroke="#000000" stroke-width="0.0938" d="M1393.9631,859.5526c16.0487-3.439,33.6259,5.2541,40.5994,20.061
		c7.2601,14.1382,4.0122,32.7662-7.7377,43.4653c-9.6483,9.3618-24.6464,12.7053-37.447,8.4065
		c-15.0935-4.7764-25.9835-20.0609-25.506-35.9185C1363.8717,878.3716,1377.15,862.5139,1393.9631,859.5526z"/>
	<path fill="#C1272D" stroke="#010101" stroke-width="0.0938" d="M1680.6429,861.6542c5.8271-2.1971,12.8962,2.1016,13.6605,8.3109
		c1.3374,6.4003-4.6809,12.9918-11.1768,12.132c-6.687-0.191-11.5588-7.7378-9.1707-13.8516
		C1675.0067,865.1887,1677.5859,862.705,1680.6429,861.6542z"/>
	<path fill="#FF7BAC" stroke="#000000" stroke-width="0.0938" d="M1760.8865,862.705c13.4695-2.2927,27.4165,7.9289,29.327,21.3983
		c2.6749,13.5649-7.5466,27.7031-21.1116,29.7092c-13.7561,2.7703-28.2764-7.6423-30.0914-21.4938
		C1736.4313,878.5626,1747.0349,864.329,1760.8865,862.705z"/>
	<path fill="#FCEE21" stroke="#000000" stroke-width="0.0938" d="M1826.8009,866.5261
		c14.8068-4.1077,31.6198,2.9614,39.1665,16.2398c6.496,10.6036,6.496,24.7418,0.2866,35.4409
		c-6.5914,11.8455-20.5386,19.1057-34.1035,17.5772c-12.7053-1.1463-24.3596-9.7438-29.1361-21.5893
		c-5.254-12.3232-2.5791-27.5121,6.5916-37.3515C1814.191,871.8756,1820.2094,868.1501,1826.8009,866.5261z"/>
	<path fill="#B3B3B3" stroke="#000000" stroke-width="0.0938" d="M913.5523,868.3411c8.1199-3.0568,17.9593,2.5792,19.5833,11.0812
		c2.1016,8.1199-4.0121,17.0995-12.2275,18.2458c-7.6423,1.4329-15.8577-4.0121-17.2906-11.6544
		C901.7068,878.6582,906.3877,870.5383,913.5523,868.3411z"/>
	<path fill="#F7931E" stroke="#000000" stroke-width="0.0938" d="M1589.8912,873.7862
		c16.5264-2.2927,33.9125,4.0121,45.1848,16.3353c11.3678,12.0365,16.4308,29.6137,13.1829,45.8535
		c-3.0568,16.0488-13.947,30.2823-28.7539,37.2559c-14.1382,6.9736-31.4287,7.0691-45.5669,0.0955
		c-14.7113-6.9736-25.7925-21.1117-28.9449-37.0649c-3.248-15.6666,1.2418-32.7662,11.8455-44.8027
		C1565.1494,881.8105,1577.1859,875.4102,1589.8912,873.7862z"/>
	<path fill="#C69C6D" stroke="#000000" stroke-width="0.0938" d="M1894.6259,878.8492c8.5975-3.248,19.01,1.8151,21.9714,10.4125
		c3.439,8.5975-1.433,19.2966-10.2214,22.2581c-8.6931,3.5345-19.5833-1.4329-22.5447-10.4126
		C1880.4875,892.4142,1885.7417,881.6196,1894.6259,878.8492z"/>
	<path fill="#FF1D25" stroke="#010101" stroke-width="0.0938" d="M1712.0717,882.3837c6.687-2.5792,14.8069,2.3882,15.6666,9.4573
		c1.1462,6.4003-3.8212,12.8963-10.2214,13.5649c-6.496,1.0508-13.0873-4.2988-13.4695-10.8902
		C1703.5696,889.3573,1707.1041,884.0078,1712.0717,882.3837z"/>
	<path fill="#C69C6D" stroke="#010101" stroke-width="0.0938" d="M1119.9885,887.5422c5.5406-2.006,11.7499,3.9166,9.8394,9.5529
		c-1.3374,5.6362-9.3617,7.7377-13.1829,3.3434C1112.5374,896.6174,1114.5433,888.9752,1119.9885,887.5422z"/>
	<path fill="#4D4D4D" stroke="#010101" stroke-width="0.0938" d="M1081.7772,888.402c5.8273-1.624,11.559,5.1585,8.8842,10.6036
		c-2.0061,5.4451-10.317,6.4003-13.4695,1.5284C1073.8484,896.4264,1076.4277,889.3573,1081.7772,888.402z"/>
	<path fill="#009245" stroke="#000000" stroke-width="0.0938" d="M1323.3678,888.593c10.317-2.1016,21.3029,5.063,23.691,15.189
		c2.2927,8.3109-1.4329,17.7682-8.693,22.4491c-7.1647,4.8719-17.2906,4.4897-24.0731-0.9553
		c-6.9735-5.1586-9.8394-15.0935-6.8781-23.2134C1309.8983,895.089,1316.2032,889.7394,1323.3678,888.593z"/>
	<path fill="#93278F" stroke="#000000" stroke-width="0.0938" d="M1673.9559,894.3247
		c10.4126-2.8658,22.0669,3.9166,24.8373,14.2337c3.3435,10.3171-3.0569,22.3536-13.3739,25.506
		c-10.7948,3.8211-23.691-3.0569-26.4613-14.2337C1655.6145,909.0361,1662.9702,896.713,1673.9559,894.3247z"/>
	<path fill="#D9E021" stroke="#010101" stroke-width="0.0938" d="M1161.9254,895.8533c5.4451-2.1972,11.6544,3.439,10.1259,9.0752
		c-0.9552,5.6362-8.502,8.1199-12.7052,4.2987C1154.6652,905.5971,1156.2892,897.3817,1161.9254,895.8533z"/>
	<path fill="#FF931E" stroke="#000000" stroke-width="0.0938" d="M1480.9891,896.2353
		c17.3861-2.8658,35.8231,6.0183,44.5161,21.2072c8.8842,14.7113,7.8333,34.5811-2.4838,48.2416
		c-9.9349,14.0426-28.6583,20.9207-45.3757,16.9084c-16.4308-3.6301-29.9958-17.386-33.1483-33.9125
		c-3.439-15.5711,2.5792-32.7662,14.9025-42.7966C1465.6091,900.8207,1473.1558,897.4772,1480.9891,896.2353z"/>
	<path fill="#754C24" stroke="#010101" stroke-width="0.0938" d="M1211.6954,897.0951c5.1586-2.5792,11.8456,2.1971,10.8903,7.9288
		c-0.191,5.8272-7.7378,9.1707-12.2275,5.6362C1205.3906,907.6031,1206.2504,899.1968,1211.6954,897.0951z"/>
	<path fill="#22B573" stroke="#000000" stroke-width="0.0938" d="M1259.2684,900.6297
		c17.3861-2.6749,35.7275,6.7825,43.8474,22.3536c8.0244,14.7114,6.3048,33.9125-4.2987,46.8088
		c-10.126,13.0873-28.2764,19.2966-44.2295,14.9979c-15.4756-3.7256-28.1808-16.7174-31.4288-32.2886
		c-3.63-15.2845,2.1971-32.1929,14.2338-42.2233C1243.6019,905.0239,1251.3396,901.6805,1259.2684,900.6297z"/>
	<path fill="#666666" stroke="#010101" stroke-width="0.0938" d="M1137.9478,912.093c6.496-1.6239,13.4695,3.5345,13.5651,10.2215
		c0.5731,7.0691-6.8781,13.1829-13.6605,11.1768c-6.0183-1.2419-9.9349-8.2154-7.9288-13.9471
		C1131.0697,915.8185,1134.2222,912.8572,1137.9478,912.093z"/>
	<path fill="#FF0000" stroke="#000000" stroke-width="0.0938" d="M1188.7687,915.3409c7.4512-2.3882,15.9532,3.9166,15.7622,11.75
		c0.3821,7.6423-7.5468,14.2338-14.9979,12.2277c-6.5914-1.2419-11.1769-8.4065-9.4573-14.9023
		C1180.9354,920.1173,1184.3745,916.3918,1188.7687,915.3409z"/>
	<path fill="#2E3192" stroke="#010101" stroke-width="0.0938" d="M1104.5129,916.6783c5.254-2.5792,11.941,2.4837,10.7947,8.3109
		c-0.4777,5.7317-7.8334,8.7886-12.3231,5.3495C1098.1125,927.0909,1099.0679,918.78,1104.5129,916.6783z"/>
	<path fill="#FF0000" stroke="#000000" stroke-width="0.0938" d="M1720.6692,916.8694c9.1707-2.9614,19.9653,2.3882,23.3088,11.3679
		c2.8658,7.0691,1.1464,15.6666-4.3943,20.9207c-5.254,5.3495-13.8516,7.0691-20.7295,4.2032
		c-7.0691-2.7703-12.1321-10.0305-12.1321-17.6727C1706.531,927.2819,1712.5493,919.0665,1720.6692,916.8694z"/>
	<path fill="#3FA9F5" stroke="#000000" stroke-width="0.0938" d="M972.7797,918.0157c9.3618-2.8658,20.1564,2.8658,23.3089,12.132
		c2.4837,6.7825,0.6687,14.9979-4.4899,20.0609c-5.5406,5.7317-14.9023,7.4512-22.067,3.8211
		c-7.1646-3.3435-11.6544-11.3679-10.7946-19.2011C959.4058,926.8999,965.233,919.9263,972.7797,918.0157z"/>
	<path fill="#D4145A" stroke="#010101" stroke-width="0.0938" d="M800.7336,919.6396c6.4005-2.5792,14.3292,1.8151,15.4756,8.5975
		c1.8151,7.1646-4.6808,14.7114-11.941,14.0426c-7.2602,0.0955-12.8963-7.8333-10.7947-14.7114
		C794.3333,924.0341,797.1991,920.9771,800.7336,919.6396z"/>
	<path fill="#00FF00" stroke="#000000" stroke-width="0.0938" d="M1880.2966,920.1173c8.1199-2.3882,17.2905,3.5345,18.5325,11.8455
		c1.6239,7.7377-4.0122,16.0488-11.75,17.4817c-7.5468,1.7195-15.8577-3.439-17.5773-11.0812
		C1867.3048,930.6254,1872.5588,921.9324,1880.2966,920.1173z"/>
	<path fill="#006837" stroke="#000000" stroke-width="0.0938" d="M1773.3052,921.8369c12.132-3.1525,25.7925,4.0121,30.0913,15.7621
		c2.9613,7.5468,2.1971,16.5264-2.2927,23.4044c-4.2032,6.687-11.6544,11.1768-19.5833,11.8455
		c-10.0304,1.0508-20.252-4.3943-25.0283-13.2784c-4.7764-8.4065-4.2032-19.4877,1.433-27.4165
		C1761.5552,927.0909,1767.0958,923.2698,1773.3052,921.8369z"/>
	<path fill="#603813" stroke="#010101" stroke-width="0.0938" d="M900.0828,931.1987c7.0691-1.4329,14.2337,4.9674,13.565,12.2277
		c-0.191,7.1646-7.9288,12.8008-14.8069,10.6991c-6.7825-1.624-10.6992-9.8395-7.6422-16.1443
		C892.9182,934.351,896.2617,931.7718,900.0828,931.1987z"/>
	<path fill="#FF1D25" stroke="#000000" stroke-width="0.0938" d="M1361.5791,941.2291
		c19.3922-2.9614,39.6442,1.1463,56.3616,11.2723c13.0873,7.8333,24.073,19.2966,31.2375,32.8617
		c8.4066,15.5711,11.6544,33.9125,9.3618,51.3942c-2.3882,17.8636-10.6035,34.8678-23.1177,47.764
		c-11.6544,12.2277-27.13,20.8252-43.6564,24.2642c-16.1443,3.5345-33.4348,2.1016-48.8148-3.9166
		c-17.1951-6.687-32.0974-19.1056-41.6501-34.7722c-8.7887-14.1382-13.0874-30.8557-12.5142-47.4774
		c0.5731-18.819,7.6422-37.256,19.6787-51.5852C1321.7439,954.8896,1341.0405,944.095,1361.5791,941.2291z"/>
	<path fill="#FF1D25" stroke="#000000" stroke-width="0.0938" d="M1686.2791,943.6173c9.2662-1.6239,18.6279,6.5915,18.2458,16.0488
		c0.191,8.7885-7.9288,16.4308-16.6219,15.8577c-8.9796-0.0955-16.7174-8.8842-15.38-17.7682
		C1673.2871,950.5908,1679.21,944.3815,1686.2791,943.6173z"/>
	<path fill="#9E005D" stroke="#010101" stroke-width="0.0938" d="M1121.899,944.7636c5.4451-2.3882,11.941,2.9614,10.5081,8.6931
		c-0.8597,5.9227-8.884,8.5975-13.0873,4.2988C1115.1166,954.2209,1116.5496,946.5787,1121.899,944.7636z"/>
	<path fill="#FF931E" stroke="#000000" stroke-width="0.0938" d="M1836.3536,945.7189
		c16.7174-4.1077,35.2499,6.1138,40.7905,22.3536c5.7317,14.9023-0.3822,33.1482-13.8516,41.6502
		c-10.5082,6.9736-24.8374,7.6422-35.9186,1.5284c-12.3231-6.4004-19.9655-20.6341-18.437-34.4857
		C1810.0835,961.9587,1821.7378,948.7758,1836.3536,945.7189z"/>
	<path fill="#999999" stroke="#000000" stroke-width="0.0938" d="M1154.2831,946.7697c11.75-3.5345,25.0284,4.6809,27.321,16.7174
		c2.8658,11.8455-6.0183,24.9329-18.1504,26.3658c-11.7499,2.1971-24.073-6.9736-25.3149-18.9146
		C1136.4193,960.3347,1143.8705,949.349,1154.2831,946.7697z"/>
	<path fill="#FFFF00" stroke="#010101" stroke-width="0.0938" d="M1199.2769,955.2717c4.9674-3.0568,12.0365,1.3375,11.6544,7.0692
		c0.0955,5.7317-6.9735,9.6483-11.8456,6.4959C1193.9272,966.1619,1194.0228,957.8509,1199.2769,955.2717z"/>
	<path fill="#FF00FF" stroke="#000000" stroke-width="0.0938" d="M1722.5797,969.5054c17.004-3.6301,35.4409,7.5467,40.2173,24.1686
		c5.3496,15.9531-2.7703,34.7722-17.8636,41.9369c-14.3292,7.5468-33.5304,3.3434-43.3698-9.5529
		c-9.3618-11.2723-10.3171-28.5629-2.2927-40.886C1704.4294,977.1476,1713.027,971.2249,1722.5797,969.5054z"/>
	<path fill="#2E3192" stroke="#010101" stroke-width="0.0938" d="M1651.9845,970.5562c5.8271-2.5792,13.3739,0.5731,15.571,6.5914
		c2.8658,6.496-1.5284,14.7114-8.502,16.0488c-6.7825,1.7195-14.1382-3.7256-14.4248-10.6991
		C1644.1511,977.4341,1647.399,972.3713,1651.9845,970.5562z"/>
	<path fill="#22B573" stroke="#010101" stroke-width="0.0938" d="M1050.0619,971.3204c6.9736-2.2927,15.0935,2.9614,15.7622,10.3171
		c1.2418,7.4513-5.6362,14.8069-13.0874,14.0426c-6.9735-0.2866-12.6097-7.1646-11.4634-14.0426
		C1041.8466,976.861,1045.4766,972.6578,1050.0619,971.3204z"/>
	<path fill="#93278F" stroke="#000000" stroke-width="0.0938" d="M1780.9474,982.8793c7.6422-2.7703,16.9084,1.7195,19.3922,9.3618
		c3.0569,7.6422-1.4329,17.0995-9.2661,19.7742c-7.8333,3.0569-17.5773-1.7195-19.8699-9.8394
		C1768.4332,994.5337,1773.2096,985.363,1780.9474,982.8793z"/>
	<path fill="#3FA9F5" stroke="#000000" stroke-width="0.0938" d="M1544.0377,987.7512c6.8779-1.6239,14.4247-0.2866,20.252,3.8212
		c6.2092,4.1077,10.2214,11.2723,10.8901,18.6279c0.9553,9.7438-4.3943,19.6788-12.8962,24.3597
		c-9.0752,5.1584-21.3029,3.821-29.0405-3.248c-6.9736-6.0183-10.126-16.1442-7.7378-25.0283
		C1527.5114,997.2086,1534.9625,989.7573,1544.0377,987.7512z"/>
	<path fill="#8CC63F" stroke="#000000" stroke-width="0.0938" d="M1212.4597,990.4261c7.5468-2.4837,16.0487,4.1077,15.7621,11.941
		c0.191,6.878-6.3048,12.9918-13.1829,12.3232c-6.9735-0.191-12.7052-7.0691-11.5588-13.9471
		C1204.1487,995.9666,1207.8744,991.7634,1212.4597,990.4261z"/>
	<path fill="#D4145A" stroke="#010101" stroke-width="0.0938" d="M1608.0415,990.5216c6.8781-2.6749,14.8069,3.7256,13.8516,10.9857
		c-0.3821,7.8333-10.6035,12.5142-16.7174,7.5468C1598.2021,1004.4687,1600.1127,992.7187,1608.0415,990.5216z"/>
	<path fill="#00A99D" stroke="#020202" stroke-width="0.0938" d="M1179.1204,993.3875c5.5406-2.6749,12.3232,2.9613,10.6992,8.8842
		c-0.9553,5.445-8.2155,8.1199-12.5142,4.4897C1172.6245,1003.4178,1173.7708,995.3935,1179.1204,993.3875z"/>
	<path fill="#006837" stroke="#000000" stroke-width="0.0938" d="M1488.6315,1000.2654c6.5914-1.4329,13.756,0.5732,18.6279,5.3495
		c5.8271,5.4451,8.0244,14.5203,5.1586,22.067c-2.8658,8.3109-11.559,14.0426-20.3475,13.5649
		c-10.3171-0.1909-19.5833-9.1707-19.8699-19.5833C1471.4364,1011.7288,1478.8875,1002.0804,1488.6315,1000.2654z"/>
	<path fill="#FF0000" stroke="#000000" stroke-width="0.0938" d="M1669.1796,1004.0865c9.4573-2.1016,19.2966,6.0183,19.01,15.6666
		c0.3822,9.1707-8.4065,17.0995-17.4817,16.0487c-9.0751-0.5731-16.2397-9.8394-14.3291-18.819
		C1657.4296,1010.5825,1662.7791,1005.2329,1669.1796,1004.0865z"/>
	<path fill="#F7931E" stroke="#010101" stroke-width="0.0938" d="M1250.6709,1012.3975
		c7.3557-2.6748,16.0487,3.3435,16.1443,11.1768c0.5731,6.9736-5.6362,13.4694-12.6097,13.0873
		c-6.4958,0-12.2275-5.7317-12.1321-12.1321C1241.8823,1019.0845,1245.6079,1014.0215,1250.6709,1012.3975z"/>
	<path fill="#1B1464" stroke="#010101" stroke-width="0.0938" d="M1804.9249,1013.5438c4.9674-2.6748,11.8455-0.0955,13.8516,5.1586
		c2.2927,5.063-0.4777,11.5588-5.7317,13.4694c-4.8719,2.0061-10.8903-0.4775-12.9918-5.254
		C1797.7603,1022.0458,1800.053,1015.741,1804.9249,1013.5438z"/>
	<path fill="#009245" stroke="#000000" stroke-width="0.0938" d="M1607.1818,1021.3771
		c17.8636-3.439,37.0649,6.4004,44.8982,22.7357c7.8333,15.0935,5.063,34.6768-6.4004,47.0955
		c-11.6543,13.2784-32.0974,17.6726-48.1461,10.4126c-16.4308-6.8781-27.13-24.9329-25.1239-42.701
		C1573.938,1040.4827,1588.9359,1024.2429,1607.1818,1021.3771z"/>
	<path fill="#1B1464" stroke="#000000" stroke-width="0.0938" d="M1835.3984,1025.0072
		c8.1199-2.8658,17.9592,2.5792,19.7742,11.0812c2.5792,9.0752-5.063,19.1057-14.4247,19.0101
		c-8.1199,0.5732-15.5712-6.3048-15.9531-14.3292C1824.2216,1033.8914,1828.8069,1027.1088,1835.3984,1025.0072z"/>
	<path fill="#FF00FF" stroke="#010101" stroke-width="0.0938" d="M1218.287,1027.682c4.9674-2.7703,11.7499,1.6239,11.2722,7.2601
		c0.0956,6.2094-8.2153,10.0305-12.8008,5.8271C1212.4597,1037.5214,1213.3195,1029.9746,1218.287,1027.682z"/>
	<path fill="#8CC63F" stroke="#000000" stroke-width="0.0938" d="M1770.3438,1034.2734c15.4756-2.7704,32.002,2.6748,42.8922,13.947
		c12.8008,12.8008,17.386,33.0527,11.2723,50.0568c-5.5406,16.3352-20.3475,29.136-37.447,32.0018
		c-17.0995,3.248-35.5364-3.63-46.4266-17.0995c-11.0812-13.3739-14.1382-32.8617-7.4512-48.9104
		C1739.2971,1048.6025,1753.9128,1036.8527,1770.3438,1034.2734z"/>
	<path fill="#00FF00" stroke="#000000" stroke-width="0.0938" d="M1689.2404,1043.1576c9.4574-1.5284,19.4878,2.4836,25.506,9.9349
		c7.929,9.6483,7.929,24.7417-0.191,34.2946c-7.9288,10.0304-23.1177,12.9918-34.1991,6.687
		c-10.2214-5.3496-16.1442-17.6727-13.756-29.0406C1668.5107,1053.9523,1678.0636,1044.7815,1689.2404,1043.1576z"/>
	<path fill="#FF931E" stroke="#010101" stroke-width="0.0938" d="M1269.9677,1044.1128c5.5405-1.9105,11.6544,4.0122,9.7438,9.6483
		c-1.3374,5.6362-9.2662,7.7378-13.1829,3.3435C1262.3253,1053.2834,1264.427,1045.4502,1269.9677,1044.1128z"/>
	<path fill="#9E005D" stroke="#000000" stroke-width="0.0938" d="M1502.9607,1053.6656
		c16.1442-3.248,33.4348,0.8597,46.5221,10.8903c12.3231,9.2661,20.634,23.6909,22.5446,39.0709
		c2.4838,17.7682-4.1077,36.3962-16.8129,48.9104c-11.4634,11.4634-27.7987,17.6726-43.943,16.8129
		c-17.1949-0.7643-33.7214-9.5527-43.9429-23.4043c-10.9857-14.4248-14.5203-34.1035-9.2662-51.3942
		C1463.7941,1073.9175,1481.849,1057.3912,1502.9607,1053.6656z"/>
	<path fill="#9E005D" stroke="#000000" stroke-width="0.0938" d="M1122.6633,1062.8363
		c10.7946-3.3435,23.2133,4.9674,24.2642,16.2397c1.5283,10.0305-6.2094,20.1564-16.2399,21.3983
		c-9.7439,1.7196-19.8698-5.254-21.7804-14.9023C1106.519,1075.9237,1113.1105,1065.2245,1122.6633,1062.8363z"/>
	<path fill="#ED1C24" stroke="#000000" stroke-width="0.0938" d="M818.9795,1070.0009c9.0751-2.006,18.9146,4.6809,20.443,13.8517
		c2.2927,9.9349-5.9227,20.3474-16.0487,20.7295c-8.7886,0.7643-17.3861-6.2094-18.3414-14.9979
		C803.504,1080.6045,810.0954,1071.4338,818.9795,1070.0009z"/>
	<path fill="#C7B299" stroke="#000000" stroke-width="0.0938" d="M957.3997,1076.4968c8.2154-2.3882,17.5772,2.1973,20.6341,10.126
		c2.6747,6.1139,1.2418,13.7561-3.3435,18.5325c-4.4899,4.8719-11.8455,6.7825-18.0548,4.6809
		c-6.7825-2.0061-11.8455-8.5975-12.1321-15.7621C944.0258,1086.2407,949.6619,1078.4075,957.3997,1076.4968z"/>
	<path fill="#FF7BAC" stroke="#000000" stroke-width="0.0938" d="M1264.1404,1081.4642
		c18.4369-2.8658,37.447,10.5082,41.1726,28.754c4.2988,17.1949-5.6362,36.3961-22.067,42.8921
		c-14.2336,6.1138-31.9064,2.1971-42.1278-9.4573c-11.1768-11.941-12.8008-31.4288-3.8212-45.0892
		C1243.2197,1089.202,1253.2502,1082.8016,1264.1404,1081.4642z"/>
	<path fill="#8C6239" stroke="#000000" stroke-width="0.0938" d="M1707.3907,1105.3463
		c10.5081-3.5345,22.7357,3.8212,24.5507,14.7113c2.2927,10.2214-5.1586,21.1117-15.4755,22.7357
		c-10.3171,2.1973-21.3983-5.6361-22.6401-16.1442C1692.2972,1117.4784,1698.4111,1107.83,1707.3907,1105.3463z"/>
	<path fill="#FCEE21" stroke="#010101" stroke-width="0.0938" d="M1362.5343,1122.4458c5.7317-1.2418,11.941,3.248,12.4187,9.0752
		c0.9553,6.2094-4.6809,12.2277-10.9857,11.75c-5.9227-0.0955-10.7948-5.9226-9.9349-11.75
		C1354.51,1127.0313,1358.14,1123.2101,1362.5343,1122.4458z"/>
	<path fill="#7AC943" stroke="#000000" stroke-width="0.0938" d="M1416.03,1123.4011c16.1443-2.7704,32.9573,8.693,36.3962,24.7418
		c4.1078,15.6666-5.6362,33.2438-21.1117,38.1157c-14.0426,5.1586-30.9512-1.0508-38.4022-13.8516
		c-8.0244-12.7053-5.4451-30.76,5.7317-40.6949C1403.4203,1127.3177,1409.5341,1124.3564,1416.03,1123.4011z"/>
	<path fill="#FF00FF" stroke="#000000" stroke-width="0.0938" d="M1620.4602,1124.6431
		c16.2397-2.6748,33.2438-0.6687,48.2417,6.0183c15.9531,6.9736,29.7092,19.0101,38.6888,33.9125
		c10.126,16.5264,14.2338,36.5873,11.5588,55.7885c-2.5792,18.5325-11.4634,36.2051-24.8373,49.2925
		c-11.1768,10.9857-25.4104,18.7234-40.7904,22.1625c-17.7682,4.1077-36.8739,2.2926-53.4957-5.2542
		c-13.8516-6.1138-25.9836-16.0487-34.7722-28.3717c-11.559-16.0488-17.1951-36.3007-15.5712-55.9795
		c1.1462-16.4308,7.3556-32.384,17.386-45.3759C1579.8607,1139.7365,1599.444,1127.9866,1620.4602,1124.6431z"/>
	<path fill="#93278F" stroke="#000000" stroke-width="0.0938" d="M1201.0919,1128.2731c8.4064-2.8658,18.2458,3.1525,19.6787,11.941
		c1.9105,8.502-4.7764,17.4817-13.3739,18.3413c-8.2155,1.2419-16.6219-5.3496-17.1951-13.6605
		C1189.1509,1137.6349,1194.1183,1130.1836,1201.0919,1128.2731z"/>
	<path fill="#F7931E" stroke="#000000" stroke-width="0.0938" d="M1760.791,1139.45c9.1707-2.1016,19.201,3.63,22.0669,12.5142
		c2.4838,6.8779,0.6687,15.0934-4.6809,20.1564c-5.6361,5.6361-14.8068,7.1646-21.876,3.6301
		c-7.26-3.3435-11.8455-11.4634-10.8901-19.4878C1746.1752,1148.1429,1752.7666,1140.9783,1760.791,1139.45z"/>
	<path fill="#754C24" stroke="#000000" stroke-width="0.0938" d="M1321.3617,1151.7729
		c16.5264-2.6748,33.9126,2.1971,46.7133,12.9918c11.4634,9.5527,19.01,23.5953,20.5385,38.4022
		c2.1016,17.386-4.4897,35.4409-16.9083,47.764c-10.9858,10.9857-26.5569,17.2905-42.0325,17.004
		c-16.0487-0.191-31.8108-7.3556-42.51-19.2966c-13.6604-14.9023-18.6279-37.256-12.4186-56.5526
		C1280.9534,1171.2607,1299.8679,1154.9254,1321.3617,1151.7729z"/>
	<path fill="#29ABE2" stroke="#000000" stroke-width="0.0938" d="M1153.3279,1156.8359
		c13.947-3.7256,29.8047,3.3435,36.3961,16.1443c4.7764,8.7886,5.1586,19.7743,0.9553,28.8495
		c-4.4899,10.0304-14.4248,17.386-25.3149,18.7234c-15.0935,2.2927-30.8556-7.6422-35.1544-22.2581
		c-4.2987-12.6096,0.3822-27.5121,10.9858-35.632C1144.7303,1159.9884,1148.9335,1157.8867,1153.3279,1156.8359z"/>
	<path fill="#998675" stroke="#000000" stroke-width="0.0938" d="M1228.6995,1165.2424
		c11.941-2.8658,25.1239,3.8212,30.1869,14.9979c4.9674,10.2214,2.3882,23.4999-6.0183,31.1421
		c-8.3109,8.0244-21.876,9.6483-31.8108,3.8212c-8.5975-4.7764-14.1382-14.6158-13.6605-24.5507
		C1207.5878,1178.7119,1216.9495,1167.6307,1228.6995,1165.2424z"/>
	<path fill="#0000FF" stroke="#000000" stroke-width="0.0938" d="M1486.7208,1183.5839
		c17.3861-4.0122,36.5873,3.9166,46.1401,19.0101c9.6483,14.3292,9.4573,34.39-0.3821,48.6238
		c-9.4574,14.4247-27.9899,22.067-44.8982,18.5325c-16.4308-3.0569-30.2823-16.1443-34.1991-32.384
		c-3.7257-14.4247,0.4775-30.4735,10.7947-41.1726C1470.099,1189.8887,1478.1233,1185.3989,1486.7208,1183.5839z"/>
	<path fill="#00A99D" stroke="#010101" stroke-width="0.0938" d="M1741.7809,1189.22c6.8779-2.7703,14.9023,3.8212,13.4694,11.1768
		c-0.7642,7.4513-10.7947,11.3679-16.4308,6.4004C1732.6102,1202.2118,1734.4252,1191.4171,1741.7809,1189.22z"/>
	<path fill="#B3B3B3" stroke="#000000" stroke-width="0.0938" d="M1027.2307,1195.0472c15.189-3.1525,31.4288,8.1199,33.817,23.4043
		c3.1523,14.6158-6.9735,30.2823-21.4938,33.6259c-14.0427,4.0122-30.0914-4.5853-34.7723-18.4369
		c-4.7764-12.6097,0.6687-27.8942,12.2275-34.7723C1020.0662,1197.0532,1023.6006,1195.7158,1027.2307,1195.0472z"/>
	<path fill="#D9E021" stroke="#000000" stroke-width="0.0938" d="M1414.1195,1197.2444c5.8271-1.5284,12.3231,0,17.0996,3.7256
		c6.4958,5.0631,9.0751,14.4248,6.2092,22.1625c-3.0568,8.6931-12.7052,14.4248-21.7804,12.7053
		c-8.8842-1.3374-16.2397-9.3618-16.5264-18.3413C1398.3574,1208.2301,1405.1399,1199.2505,1414.1195,1197.2444z"/>
	<path fill="#4D4D4D" stroke="#010101" stroke-width="0.0938" d="M1079.6757,1203.3582c5.6361-2.3883,12.8008,1.4329,13.8516,7.5466
		c1.5284,5.9227-3.3435,12.3232-9.4573,12.5142c-5.1586,0.4777-10.317-3.63-10.8903-8.7885
		C1072.4155,1209.9496,1075.2814,1204.9822,1079.6757,1203.3582z"/>
	<path fill="#00FFFF" stroke="#000000" stroke-width="0.0938" d="M1110.2446,1227.4313
		c14.2336-3.6301,30.0913,5.9226,33.4348,20.2518c3.9166,13.374-4.0122,28.6584-17.004,33.3394
		c-11.8455,4.8719-26.5568,0.191-33.5303-10.5081c-7.3557-10.5081-6.0183-25.9836,3.0569-35.1544
		C1100.0231,1231.4434,1104.9906,1228.5775,1110.2446,1227.4313z"/>
	<path fill="#D9E021" stroke="#000000" stroke-width="0.0938" d="M1188.6732,1228.4821c11.75-3.9166,25.4104,3.9166,28.0853,15.9531
		c3.0569,10.9857-3.9166,23.4044-14.8069,26.7478c-8.693,2.9614-19.0101-0.1909-24.5508-7.5466
		c-5.1584-6.496-6.2092-15.8577-2.5792-23.309C1177.4965,1234.5958,1182.6549,1230.2971,1188.6732,1228.4821z"/>
	<path fill="#ED1E79" stroke="#000000" stroke-width="0.0938" d="M720.5856,1231.5389c13.756-3.4391,28.754,7.0691,29.9958,21.2072
		c2.1016,13.5649-9.0751,27.0344-22.7357,27.7031c-12.8008,1.3374-25.4105-8.9796-26.5568-21.7804
		C699.6649,1246.3457,708.549,1233.9271,720.5856,1231.5389z"/>
	<path fill="#B3B3B3" stroke="#010101" stroke-width="0.0938" d="M872.3797,1232.1122c6.1138-2.1016,13.0873,2.8658,13.2784,9.2661
		c0.5732,5.9227-4.8719,11.4634-10.7946,11.0813c-4.9675-0.0956-9.4573-4.2032-9.9349-9.1707
		C864.3553,1238.417,867.6989,1233.4495,872.3797,1232.1122z"/>
	<path fill="#B3B3B3" stroke="#000000" stroke-width="0.0938" d="M806.5609,1235.36c17.5771-3.6301,36.7783,5.9227,44.7071,22.067
		c8.2155,15.6666,4.8719,36.4917-8.1199,48.6238c-12.5142,12.7053-33.5303,15.38-49.0059,6.687
		c-15.2845-8.1199-24.1686-26.4613-21.0162-43.5608C775.8008,1252.364,789.7479,1238.1304,806.5609,1235.36z"/>
	<path fill="#009245" stroke="#000000" stroke-width="0.0938" d="M1248.9514,1236.3153c6.4958-1.1464,13.4695,0.9553,18.1504,5.6361
		c6.0182,5.7317,8.1199,15.2845,4.8718,23.0223c-3.439,8.693-13.1829,14.4247-22.4491,12.8962
		c-9.8394-1.2419-17.8638-10.2214-17.9592-20.0609C1230.8966,1247.4922,1238.8254,1237.7482,1248.9514,1236.3153z"/>
	<path fill="#603813" stroke="#000000" stroke-width="0.0938" d="M485.5865,1240.8052c6.1138-1.9105,13.0873,0.0955,17.4816,4.6809
		c5.063,5.063,6.3049,13.3739,3.1524,19.6787c-3.248,6.9736-11.4634,11.0813-19.0101,9.5529
		c-8.0244-1.4329-14.3292-8.9796-14.1382-17.0996C472.8812,1250.0714,478.3263,1242.9067,485.5865,1240.8052z"/>
	<path fill="#29ABE2" stroke="#000000" stroke-width="0.0938" d="M911.6418,1240.9962c6.1138-1.8151,12.9918-0.8599,18.3414,2.6748
		c5.7317,3.6301,9.6483,10.0304,10.2215,16.8129c0.7642,7.4513-2.5792,14.9979-8.4064,19.5834
		c-6.1138,4.8718-14.9023,6.2092-22.1625,3.1525c-8.311-3.248-14.1381-11.8456-14.0426-20.8252
		C895.402,1252.7462,902.3755,1243.5756,911.6418,1240.9962z"/>
	<path fill="#ED1E79" stroke="#000000" stroke-width="0.0938" d="M975.6456,1242.8113c7.3557-2.4838,15.7621,3.2479,16.3353,10.8901
		c0.9553,7.2601-5.4451,14.4248-12.8008,14.1383c-7.5468,0.1909-14.0426-7.4513-12.5142-14.9023
		C967.4301,1248.2563,971.0602,1244.1487,975.6456,1242.8113z"/>
	<path fill="#8CC63F" stroke="#010101" stroke-width="0.0938" d="M1066.4928,1245.7726c5.254-2.1016,11.941,0.9553,13.5649,6.496
		c2.0061,5.4451-1.7195,12.0365-7.3556,13.2784c-5.1586,1.4329-11.0813-1.9105-12.4187-7.0691
		C1058.4684,1253.4148,1061.5253,1247.4922,1066.4928,1245.7726z"/>
	<path fill="#ED1C24" stroke="#000000" stroke-width="0.0938" d="M1421.7617,1247.5876
		c10.2216-3.7256,22.4491,2.7704,25.2195,13.183c3.2479,10.0304-3.2479,21.7804-13.3739,24.5507
		c-6.4004,1.9105-13.6606,0.3821-18.6281-4.1078c-5.254-4.4897-7.7377-11.8455-6.4003-18.6279
		C1409.8208,1255.8031,1415.0748,1249.7848,1421.7617,1247.5876z"/>
	<path fill="#39B54A" stroke="#010101" stroke-width="0.0938" d="M613.5941,1251.3132c6.687-3.0568,15.1889,1.3374,16.7174,8.4066
		c1.815,6.3048-2.3882,13.4694-8.6931,14.9978c-6.3049,1.9105-13.565-2.1971-15.2845-8.5975
		C604.6144,1260.293,607.8624,1253.5104,613.5941,1251.3132z"/>
	<path fill="#C7B299" stroke="#010101" stroke-width="0.0938" d="M1008.0295,1259.7197c5.7317-2.4838,12.9918,1.3374,14.0427,7.4512
		c1.4329,5.6362-2.9614,11.75-8.7886,12.4187c-5.7317,0.9552-11.5589-3.8212-11.7499-9.6483
		C1001.2471,1265.6425,1004.1129,1261.3438,1008.0295,1259.7197z"/>
	<path fill="#ED1C24" stroke="#010101" stroke-width="0.0938" d="M669.8601,1270.2278c5.2541-2.5792,11.8455,2.6748,10.6992,8.4065
		c-0.5732,5.5406-7.8333,8.5021-12.2275,5.1586C663.3643,1280.6404,664.3195,1272.1383,669.8601,1270.2278z"/>
	<path fill="#00FF00" stroke="#010101" stroke-width="0.0938" d="M870.5647,1271.2787c5.3495-2.2927,12.2275,0.9552,13.756,6.5914
		c2.0061,5.8271-2.2927,12.6096-8.502,13.3739c-5.8272,1.0508-11.6544-3.821-11.8455-9.7438
		C863.6866,1277.1058,866.5525,1272.9026,870.5647,1271.2787z"/>
	<path fill="#8CC63F" stroke="#000000" stroke-width="0.0938" d="M1040.6047,1271.5652
		c12.1321-3.6301,25.9836,5.1586,27.7986,17.6727c2.4838,11.9409-6.5914,24.5507-18.6279,26.0792
		c-12.0365,2.1971-24.4552-7.2601-25.6016-19.3923C1022.6453,1285.1302,1030.1921,1274.1445,1040.6047,1271.5652z"/>
	<path fill="#D4145A" stroke="#000000" stroke-width="0.0938" d="M1366.3555,1272.5205
		c15.9531-4.6809,34.1991,5.4449,38.8799,21.3027c5.4451,15.7622-3.7256,34.5812-19.3922,39.9308
		c-14.4248,5.7317-32.193-0.9552-39.3575-14.6158c-7.1647-12.6096-4.3943-29.7092,6.496-39.3575
		C1356.7072,1276.3416,1361.3879,1273.7623,1366.3555,1272.5205z"/>
	<path fill="#006837" stroke="#000000" stroke-width="0.0938" d="M1536.491,1273.6669
		c14.9023-3.3435,31.3333,4.1078,38.4979,17.5771c6.4958,11.4634,5.9226,26.4613-1.5284,37.256
		c-8.7886,13.6605-27.5122,19.5833-42.51,13.4695c-13.9471-5.1586-23.691-19.7743-22.9268-34.6768
		C1508.4056,1291.3396,1520.7289,1276.6282,1536.491,1273.6669z"/>
	<path fill="#006837" stroke="#000000" stroke-width="0.0938" d="M1294.7094,1275.3864c9.1708-2.1016,19.2012,1.0508,25.5061,7.9288
		c7.8333,8.1199,9.5527,21.2072,4.2032,31.0466c-5.3496,10.6036-18.2458,16.5264-29.7092,13.7561
		c-12.1321-2.4838-21.4938-14.1383-21.2073-26.5569C1273.311,1289.2379,1282.6729,1277.7745,1294.7094,1275.3864z"/>
	<path fill="#FF931E" stroke="#000000" stroke-width="0.0938" d="M960.3611,1279.2074c7.7377-1.4329,16.0487-0.0955,22.8312,3.9166
		c10.126,5.7317,16.7174,17.2906,16.4308,28.9451c0.191,15.5712-12.2276,29.9004-27.5121,32.193
		c-15.4756,2.9613-32.0019-6.9736-36.7783-21.876c-5.063-13.7561,0.7642-30.2823,12.9918-38.2113
		C951.9546,1281.7867,956.0623,1280.0673,960.3611,1279.2074z"/>
	<path fill="#C1272D" stroke="#000000" stroke-width="0.0938" d="M1219.2422,1279.2074c8.7886-2.1016,18.5325,3.439,21.3027,12.0365
		c2.3882,6.687,0.3822,14.6158-4.8718,19.3923c-5.3496,5.063-13.7561,6.4003-20.3475,3.1525
		c-6.4004-2.9614-10.7947-9.9349-10.5081-17.004C1204.7219,1288.4738,1211.1223,1280.8314,1219.2422,1279.2074z"/>
	<path fill="#8CC63F" stroke="#010101" stroke-width="0.0938" d="M1157.0533,1282.7421c7.3557-2.3882,15.7622,3.439,16.2399,11.1768
		c0.8597,7.1646-5.4452,14.1382-12.7053,13.947c-6.5914,0.191-12.6096-5.4451-12.8008-12.0365
		C1147.214,1290.0022,1151.4172,1284.2705,1157.0533,1282.7421z"/>
	<path fill="#00FFFF" stroke="#000000" stroke-width="0.0938" d="M1458.9222,1285.5122c8.4065-1.5283,17.386,1.624,22.9268,8.0244
		c5.5406,6.2094,7.6422,15.2845,5.3495,23.3088c-2.3882,8.5975-9.8395,15.6667-18.6279,17.4817
		c-8.7886,2.0061-18.3414-1.2418-24.1687-8.0243c-4.8719-5.6362-7.0691-13.5649-5.6361-20.8252
		C1440.5807,1295.5427,1448.9873,1287.1364,1458.9222,1285.5122z"/>
	<path fill="#FCEE21" stroke="#010101" stroke-width="0.0938" d="M758.7968,1291.4351c6.0182-1.8151,12.1321,4.8719,9.8394,10.6991
		c-1.624,5.8271-10.0305,7.6422-13.9471,3.0569C750.2948,1300.9879,752.7785,1292.5813,758.7968,1291.4351z"/>
	<path fill="#8C6239" stroke="#010101" stroke-width="0.0938" d="M606.9071,1293.4412c5.3496-2.0061,11.4634,3.3435,10.0305,8.8842
		c-0.8597,5.7317-8.5975,8.3109-12.8007,4.2987C599.7425,1303.0895,601.3665,1294.9696,606.9071,1293.4412z"/>
	<path fill="#00FF00" stroke="#020202" stroke-width="0.0938" d="M641.2972,1295.2562c5.254-2.5792,11.8455,2.3882,10.8902,8.1199
		c-0.4777,5.7317-8.0244,8.8842-12.4186,5.254C634.9924,1305.2866,635.8522,1297.1667,641.2972,1295.2562z"/>
	<path fill="#BDCCD4" stroke="#010101" stroke-width="0.0938" d="M899.3186,1296.5936c7.3557-2.5792,15.9532,3.1525,16.5264,10.8903
		c1.0508,7.7377-6.3049,14.9978-14.0427,14.0425c-7.1646-0.5731-12.7052-7.9288-11.2723-14.9023
		C891.2943,1301.9431,894.8288,1297.9309,899.3186,1296.5936z"/>
	<path fill="#3FA9F5" stroke="#010101" stroke-width="0.0938" d="M1602.3098,1304.9045
		c7.5468-2.1016,14.9979,6.0183,12.4187,13.3739c-2.0061,7.6422-13.183,9.9349-18.0548,3.7256
		C1591.4197,1316.4634,1594.8586,1306.2419,1602.3098,1304.9045z"/>
	<path fill="#603813" stroke="#010101" stroke-width="0.0938" d="M680.5593,1305.9553c6.8781-2.8658,15.3801,1.8151,16.6219,9.1707
		c1.9106,7.7378-5.254,15.6666-13.0873,14.8069c-6.8781-0.2866-12.4186-7.1647-11.3679-13.8516
		C673.1081,1311.496,676.3561,1307.5793,680.5593,1305.9553z"/>
	<path fill="#666666" stroke="#000000" stroke-width="0.0938" d="M864.833,1318.3739c10.5081-1.8151,21.6849,5.0631,24.7418,15.2845
		c2.5793,7.8333,0.2866,17.004-5.6362,22.7357c-6.5914,6.687-17.5771,8.4065-25.8881,4.0121
		c-8.2155-4.1077-13.2784-13.4694-12.0366-22.5446C847.0648,1328.1179,855.0891,1319.7113,864.833,1318.3739z"/>
	<path fill="#C69C6D" stroke="#000000" stroke-width="0.0938" d="M752.9695,1318.9471c11.4634-2.3883,23.882,4.6808,27.7032,15.6666
		c3.2479,8.502,1.3373,18.7234-4.8719,25.4104c-6.1138,6.7825-16.1442,9.7438-24.9329,7.2601
		c-10.7946-2.7704-18.819-13.4695-18.1503-24.6464C732.8132,1331.2703,741.7928,1320.8577,752.9695,1318.9471z"/>
	<path fill="#FCEE21" stroke="#010101" stroke-width="0.0938" d="M607.8624,1322.0996c7.5467-2.4838,16.0487,3.9166,15.8577,11.9409
		c0.2866,7.6423-7.6423,14.0426-15.0934,12.1321c-7.3557-1.3374-11.941-10.126-8.7886-16.9084
		C601.271,1325.8252,604.3279,1323.0548,607.8624,1322.0996z"/>
	<path fill="#009245" stroke="#010101" stroke-width="0.0938" d="M816.2092,1328.8821c6.0182-1.433,12.6097,3.6301,12.4186,9.9349
		c0.3821,6.496-6.3049,11.9409-12.6097,10.317c-6.0182-1.1462-9.7439-8.1199-7.4512-13.7561
		C809.8088,1332.13,812.7701,1329.5508,816.2092,1328.8821z"/>
	<path fill="#9E005D" stroke="#000000" stroke-width="0.0938" d="M703.486,1331.7479c6.8781-2.7704,15.189,2.6748,15.571,10.0304
		c0.7642,6.496-4.7764,12.7053-11.2723,12.7053c-6.2094,0.3821-12.0366-4.8719-12.1321-11.0813
		C695.2706,1338.4348,698.6141,1333.3719,703.486,1331.7479z"/>
	<path fill="#FCEE21" stroke="#010101" stroke-width="0.0938" d="M657.537,1339.1036c5.5406-2.4838,12.1321,3.3435,10.4126,9.1707
		c-1.1464,5.7317-9.2662,7.8333-13.1829,3.5344C650.85,1348.0831,652.4741,1340.823,657.537,1339.1036z"/>
	<path fill="#0000FF" stroke="#000000" stroke-width="0.0938" d="M490.3629,1347.9877
		c10.7947-2.4838,21.8759,7.4512,20.6341,18.4369c-0.4776,10.0305-10.7947,17.9594-20.6341,15.7622
		c-10.126-1.6239-17.004-13.2784-13.1829-22.9268C479.0905,1353.5283,484.3446,1349.0385,490.3629,1347.9877z"/>
	<path fill="#754C24" stroke="#010101" stroke-width="0.0938" d="M795.0975,1355.3434c5.7317-1.6239,11.6544,4.2987,9.9349,9.9349
		c-1.1463,6.2094-9.9349,8.5975-14.0426,3.9166C786.4999,1364.9917,788.9836,1356.4896,795.0975,1355.3434z"/>
	<path fill="#FF931E" stroke="#000000" stroke-width="0.0938" d="M675.6874,1358.3047c12.7052-3.821,27.321,4.4899,30.4734,17.3861
		c3.8211,12.6096-4.3943,27.0345-17.004,30.3779c-12.6097,4.0122-27.4166-4.1077-30.7601-17.004
		C654.3846,1376.3596,662.6955,1361.5527,675.6874,1358.3047z"/>
	<path fill="#00FFFF" stroke="#020202" stroke-width="0.0938" d="M734.055,1372.825c6.0183-1.7196,12.0366,4.7764,9.8394,10.6991
		c-1.624,5.9227-10.0305,7.7378-14.0427,3.0569C725.4575,1382.1868,728.0367,1373.8757,734.055,1372.825z"/>
	<path fill="#603813" stroke="#000000" stroke-width="0.0938" d="M573.4723,1407.8838c6.5914-2.4836,14.4247,2.2927,15.38,9.2662
		c1.1464,6.3048-3.7256,12.8008-10.0304,13.4695c-6.4004,1.0508-12.9919-4.2034-13.1829-10.6992
		C564.9703,1414.7618,568.4093,1409.5078,573.4723,1407.8838z"/>
	<path fill="#666666" stroke="#000000" stroke-width="0.0938" d="M447.2797,1454.5969c10.2215-2.3882,21.0162,6.496,20.7296,17.0042
		c0.3821,9.6483-8.502,18.2458-18.1503,17.5771c-8.6931-0.191-16.4308-7.8333-16.7174-16.6219
		C432.5684,1464.1498,438.9688,1456.0299,447.2797,1454.5969z"/>
	<path fill="#ED1E79" stroke="#000000" stroke-width="0.0938" d="M622.1916,1487.4586c11.75-3.5344,25.0284,4.7765,27.2255,16.7174
		c2.6748,10.9858-4.7764,23.1178-15.7621,25.7926c-7.9288,2.1973-17.004-0.4777-22.3536-6.7825
		c-5.3495-5.9226-6.9735-14.8068-4.1077-22.2581C609.6774,1494.3368,615.4091,1489.1782,622.1916,1487.4586z"/>
	<path fill="#29ABE2" stroke="#000000" stroke-width="0.0938" d="M496.0945,1510.3854c7.8333-2.1971,16.6219,0.5731,21.9714,6.687
		c5.1585,5.7317,6.9736,14.2336,4.4898,21.5894c-2.7703,8.502-11.1768,14.9978-20.2519,14.9978
		c-8.4065,0.4777-16.6219-4.4897-20.3475-12.0365c-3.248-6.3048-3.1524-14.2338,0.2866-20.443
		C485.1088,1515.926,490.2673,1511.8184,496.0945,1510.3854z"/>
</g>
</svg>
